<?xml version="1.0" encoding="UTF-8"?>
<svg xmlns="http://www.w3.org/2000/svg" width="210mm" height="297mm" viewBox="0 0 210 297">
<title>stream — печатный лист v1</title>
<rect width="210" height="297" fill="white"/>
  <rect x="11" y="19" width="32" height="32" fill="white"/><path d="M14.4595 22.4595h0.8649v0.8649h-0.8649zM15.3243 22.4595h0.8649v0.8649h-0.8649zM16.1892 22.4595h0.8649v0.8649h-0.8649zM17.0541 22.4595h0.8649v0.8649h-0.8649zM17.9189 22.4595h0.8649v0.8649h-0.8649zM18.7838 22.4595h0.8649v0.8649h-0.8649zM19.6486 22.4595h0.8649v0.8649h-0.8649zM24.8378 22.4595h0.8649v0.8649h-0.8649zM26.5676 22.4595h0.8649v0.8649h-0.8649zM30.0270 22.4595h0.8649v0.8649h-0.8649zM33.4865 22.4595h0.8649v0.8649h-0.8649zM34.3514 22.4595h0.8649v0.8649h-0.8649zM35.2162 22.4595h0.8649v0.8649h-0.8649zM36.0811 22.4595h0.8649v0.8649h-0.8649zM36.9459 22.4595h0.8649v0.8649h-0.8649zM37.8108 22.4595h0.8649v0.8649h-0.8649zM38.6757 22.4595h0.8649v0.8649h-0.8649zM14.4595 23.3243h0.8649v0.8649h-0.8649zM19.6486 23.3243h0.8649v0.8649h-0.8649zM21.3784 23.3243h0.8649v0.8649h-0.8649zM23.9730 23.3243h0.8649v0.8649h-0.8649zM25.7027 23.3243h0.8649v0.8649h-0.8649zM29.1622 23.3243h0.8649v0.8649h-0.8649zM30.8919 23.3243h0.8649v0.8649h-0.8649zM33.4865 23.3243h0.8649v0.8649h-0.8649zM38.6757 23.3243h0.8649v0.8649h-0.8649zM14.4595 24.1892h0.8649v0.8649h-0.8649zM16.1892 24.1892h0.8649v0.8649h-0.8649zM17.0541 24.1892h0.8649v0.8649h-0.8649zM17.9189 24.1892h0.8649v0.8649h-0.8649zM19.6486 24.1892h0.8649v0.8649h-0.8649zM22.2432 24.1892h0.8649v0.8649h-0.8649zM23.1081 24.1892h0.8649v0.8649h-0.8649zM27.4324 24.1892h0.8649v0.8649h-0.8649zM29.1622 24.1892h0.8649v0.8649h-0.8649zM30.0270 24.1892h0.8649v0.8649h-0.8649zM33.4865 24.1892h0.8649v0.8649h-0.8649zM35.2162 24.1892h0.8649v0.8649h-0.8649zM36.0811 24.1892h0.8649v0.8649h-0.8649zM36.9459 24.1892h0.8649v0.8649h-0.8649zM38.6757 24.1892h0.8649v0.8649h-0.8649zM14.4595 25.0541h0.8649v0.8649h-0.8649zM16.1892 25.0541h0.8649v0.8649h-0.8649zM17.0541 25.0541h0.8649v0.8649h-0.8649zM17.9189 25.0541h0.8649v0.8649h-0.8649zM19.6486 25.0541h0.8649v0.8649h-0.8649zM23.1081 25.0541h0.8649v0.8649h-0.8649zM23.9730 25.0541h0.8649v0.8649h-0.8649zM24.8378 25.0541h0.8649v0.8649h-0.8649zM25.7027 25.0541h0.8649v0.8649h-0.8649zM33.4865 25.0541h0.8649v0.8649h-0.8649zM35.2162 25.0541h0.8649v0.8649h-0.8649zM36.0811 25.0541h0.8649v0.8649h-0.8649zM36.9459 25.0541h0.8649v0.8649h-0.8649zM38.6757 25.0541h0.8649v0.8649h-0.8649zM14.4595 25.9189h0.8649v0.8649h-0.8649zM16.1892 25.9189h0.8649v0.8649h-0.8649zM17.0541 25.9189h0.8649v0.8649h-0.8649zM17.9189 25.9189h0.8649v0.8649h-0.8649zM19.6486 25.9189h0.8649v0.8649h-0.8649zM21.3784 25.9189h0.8649v0.8649h-0.8649zM23.1081 25.9189h0.8649v0.8649h-0.8649zM23.9730 25.9189h0.8649v0.8649h-0.8649zM24.8378 25.9189h0.8649v0.8649h-0.8649zM25.7027 25.9189h0.8649v0.8649h-0.8649zM28.2973 25.9189h0.8649v0.8649h-0.8649zM30.0270 25.9189h0.8649v0.8649h-0.8649zM31.7568 25.9189h0.8649v0.8649h-0.8649zM33.4865 25.9189h0.8649v0.8649h-0.8649zM35.2162 25.9189h0.8649v0.8649h-0.8649zM36.0811 25.9189h0.8649v0.8649h-0.8649zM36.9459 25.9189h0.8649v0.8649h-0.8649zM38.6757 25.9189h0.8649v0.8649h-0.8649zM14.4595 26.7838h0.8649v0.8649h-0.8649zM19.6486 26.7838h0.8649v0.8649h-0.8649zM23.1081 26.7838h0.8649v0.8649h-0.8649zM23.9730 26.7838h0.8649v0.8649h-0.8649zM26.5676 26.7838h0.8649v0.8649h-0.8649zM27.4324 26.7838h0.8649v0.8649h-0.8649zM30.0270 26.7838h0.8649v0.8649h-0.8649zM31.7568 26.7838h0.8649v0.8649h-0.8649zM33.4865 26.7838h0.8649v0.8649h-0.8649zM38.6757 26.7838h0.8649v0.8649h-0.8649zM14.4595 27.6486h0.8649v0.8649h-0.8649zM15.3243 27.6486h0.8649v0.8649h-0.8649zM16.1892 27.6486h0.8649v0.8649h-0.8649zM17.0541 27.6486h0.8649v0.8649h-0.8649zM17.9189 27.6486h0.8649v0.8649h-0.8649zM18.7838 27.6486h0.8649v0.8649h-0.8649zM19.6486 27.6486h0.8649v0.8649h-0.8649zM21.3784 27.6486h0.8649v0.8649h-0.8649zM23.1081 27.6486h0.8649v0.8649h-0.8649zM24.8378 27.6486h0.8649v0.8649h-0.8649zM26.5676 27.6486h0.8649v0.8649h-0.8649zM28.2973 27.6486h0.8649v0.8649h-0.8649zM30.0270 27.6486h0.8649v0.8649h-0.8649zM31.7568 27.6486h0.8649v0.8649h-0.8649zM33.4865 27.6486h0.8649v0.8649h-0.8649zM34.3514 27.6486h0.8649v0.8649h-0.8649zM35.2162 27.6486h0.8649v0.8649h-0.8649zM36.0811 27.6486h0.8649v0.8649h-0.8649zM36.9459 27.6486h0.8649v0.8649h-0.8649zM37.8108 27.6486h0.8649v0.8649h-0.8649zM38.6757 27.6486h0.8649v0.8649h-0.8649zM22.2432 28.5135h0.8649v0.8649h-0.8649zM23.1081 28.5135h0.8649v0.8649h-0.8649zM24.8378 28.5135h0.8649v0.8649h-0.8649zM27.4324 28.5135h0.8649v0.8649h-0.8649zM29.1622 28.5135h0.8649v0.8649h-0.8649zM30.8919 28.5135h0.8649v0.8649h-0.8649zM31.7568 28.5135h0.8649v0.8649h-0.8649zM14.4595 29.3784h0.8649v0.8649h-0.8649zM16.1892 29.3784h0.8649v0.8649h-0.8649zM17.9189 29.3784h0.8649v0.8649h-0.8649zM19.6486 29.3784h0.8649v0.8649h-0.8649zM23.1081 29.3784h0.8649v0.8649h-0.8649zM28.2973 29.3784h0.8649v0.8649h-0.8649zM29.1622 29.3784h0.8649v0.8649h-0.8649zM30.0270 29.3784h0.8649v0.8649h-0.8649zM31.7568 29.3784h0.8649v0.8649h-0.8649zM35.2162 29.3784h0.8649v0.8649h-0.8649zM37.8108 29.3784h0.8649v0.8649h-0.8649zM17.0541 30.2432h0.8649v0.8649h-0.8649zM22.2432 30.2432h0.8649v0.8649h-0.8649zM25.7027 30.2432h0.8649v0.8649h-0.8649zM27.4324 30.2432h0.8649v0.8649h-0.8649zM29.1622 30.2432h0.8649v0.8649h-0.8649zM30.8919 30.2432h0.8649v0.8649h-0.8649zM33.4865 30.2432h0.8649v0.8649h-0.8649zM34.3514 30.2432h0.8649v0.8649h-0.8649zM36.0811 30.2432h0.8649v0.8649h-0.8649zM38.6757 30.2432h0.8649v0.8649h-0.8649zM15.3243 31.1081h0.8649v0.8649h-0.8649zM17.0541 31.1081h0.8649v0.8649h-0.8649zM17.9189 31.1081h0.8649v0.8649h-0.8649zM18.7838 31.1081h0.8649v0.8649h-0.8649zM19.6486 31.1081h0.8649v0.8649h-0.8649zM20.5135 31.1081h0.8649v0.8649h-0.8649zM21.3784 31.1081h0.8649v0.8649h-0.8649zM23.1081 31.1081h0.8649v0.8649h-0.8649zM23.9730 31.1081h0.8649v0.8649h-0.8649zM26.5676 31.1081h0.8649v0.8649h-0.8649zM29.1622 31.1081h0.8649v0.8649h-0.8649zM30.0270 31.1081h0.8649v0.8649h-0.8649zM31.7568 31.1081h0.8649v0.8649h-0.8649zM33.4865 31.1081h0.8649v0.8649h-0.8649zM35.2162 31.1081h0.8649v0.8649h-0.8649zM36.0811 31.1081h0.8649v0.8649h-0.8649zM36.9459 31.1081h0.8649v0.8649h-0.8649zM38.6757 31.1081h0.8649v0.8649h-0.8649zM16.1892 31.9730h0.8649v0.8649h-0.8649zM23.9730 31.9730h0.8649v0.8649h-0.8649zM25.7027 31.9730h0.8649v0.8649h-0.8649zM26.5676 31.9730h0.8649v0.8649h-0.8649zM30.0270 31.9730h0.8649v0.8649h-0.8649zM30.8919 31.9730h0.8649v0.8649h-0.8649zM35.2162 31.9730h0.8649v0.8649h-0.8649zM37.8108 31.9730h0.8649v0.8649h-0.8649zM16.1892 32.8378h0.8649v0.8649h-0.8649zM17.0541 32.8378h0.8649v0.8649h-0.8649zM17.9189 32.8378h0.8649v0.8649h-0.8649zM19.6486 32.8378h0.8649v0.8649h-0.8649zM20.5135 32.8378h0.8649v0.8649h-0.8649zM21.3784 32.8378h0.8649v0.8649h-0.8649zM22.2432 32.8378h0.8649v0.8649h-0.8649zM23.9730 32.8378h0.8649v0.8649h-0.8649zM24.8378 32.8378h0.8649v0.8649h-0.8649zM26.5676 32.8378h0.8649v0.8649h-0.8649zM29.1622 32.8378h0.8649v0.8649h-0.8649zM32.6216 32.8378h0.8649v0.8649h-0.8649zM33.4865 32.8378h0.8649v0.8649h-0.8649zM34.3514 32.8378h0.8649v0.8649h-0.8649zM36.0811 32.8378h0.8649v0.8649h-0.8649zM37.8108 32.8378h0.8649v0.8649h-0.8649zM38.6757 32.8378h0.8649v0.8649h-0.8649zM15.3243 33.7027h0.8649v0.8649h-0.8649zM16.1892 33.7027h0.8649v0.8649h-0.8649zM17.0541 33.7027h0.8649v0.8649h-0.8649zM17.9189 33.7027h0.8649v0.8649h-0.8649zM18.7838 33.7027h0.8649v0.8649h-0.8649zM20.5135 33.7027h0.8649v0.8649h-0.8649zM21.3784 33.7027h0.8649v0.8649h-0.8649zM22.2432 33.7027h0.8649v0.8649h-0.8649zM23.1081 33.7027h0.8649v0.8649h-0.8649zM26.5676 33.7027h0.8649v0.8649h-0.8649zM27.4324 33.7027h0.8649v0.8649h-0.8649zM29.1622 33.7027h0.8649v0.8649h-0.8649zM30.8919 33.7027h0.8649v0.8649h-0.8649zM33.4865 33.7027h0.8649v0.8649h-0.8649zM36.9459 33.7027h0.8649v0.8649h-0.8649zM37.8108 33.7027h0.8649v0.8649h-0.8649zM19.6486 34.5676h0.8649v0.8649h-0.8649zM20.5135 34.5676h0.8649v0.8649h-0.8649zM23.1081 34.5676h0.8649v0.8649h-0.8649zM24.8378 34.5676h0.8649v0.8649h-0.8649zM25.7027 34.5676h0.8649v0.8649h-0.8649zM29.1622 34.5676h0.8649v0.8649h-0.8649zM30.8919 34.5676h0.8649v0.8649h-0.8649zM31.7568 34.5676h0.8649v0.8649h-0.8649zM32.6216 34.5676h0.8649v0.8649h-0.8649zM34.3514 34.5676h0.8649v0.8649h-0.8649zM35.2162 34.5676h0.8649v0.8649h-0.8649zM36.9459 34.5676h0.8649v0.8649h-0.8649zM37.8108 34.5676h0.8649v0.8649h-0.8649zM38.6757 34.5676h0.8649v0.8649h-0.8649zM18.7838 35.4324h0.8649v0.8649h-0.8649zM20.5135 35.4324h0.8649v0.8649h-0.8649zM21.3784 35.4324h0.8649v0.8649h-0.8649zM23.1081 35.4324h0.8649v0.8649h-0.8649zM23.9730 35.4324h0.8649v0.8649h-0.8649zM27.4324 35.4324h0.8649v0.8649h-0.8649zM28.2973 35.4324h0.8649v0.8649h-0.8649zM32.6216 35.4324h0.8649v0.8649h-0.8649zM35.2162 35.4324h0.8649v0.8649h-0.8649zM37.8108 35.4324h0.8649v0.8649h-0.8649zM14.4595 36.2973h0.8649v0.8649h-0.8649zM17.9189 36.2973h0.8649v0.8649h-0.8649zM18.7838 36.2973h0.8649v0.8649h-0.8649zM19.6486 36.2973h0.8649v0.8649h-0.8649zM22.2432 36.2973h0.8649v0.8649h-0.8649zM23.1081 36.2973h0.8649v0.8649h-0.8649zM24.8378 36.2973h0.8649v0.8649h-0.8649zM29.1622 36.2973h0.8649v0.8649h-0.8649zM30.0270 36.2973h0.8649v0.8649h-0.8649zM32.6216 36.2973h0.8649v0.8649h-0.8649zM33.4865 36.2973h0.8649v0.8649h-0.8649zM36.0811 36.2973h0.8649v0.8649h-0.8649zM37.8108 36.2973h0.8649v0.8649h-0.8649zM17.0541 37.1622h0.8649v0.8649h-0.8649zM18.7838 37.1622h0.8649v0.8649h-0.8649zM20.5135 37.1622h0.8649v0.8649h-0.8649zM21.3784 37.1622h0.8649v0.8649h-0.8649zM23.9730 37.1622h0.8649v0.8649h-0.8649zM25.7027 37.1622h0.8649v0.8649h-0.8649zM27.4324 37.1622h0.8649v0.8649h-0.8649zM30.0270 37.1622h0.8649v0.8649h-0.8649zM30.8919 37.1622h0.8649v0.8649h-0.8649zM31.7568 37.1622h0.8649v0.8649h-0.8649zM32.6216 37.1622h0.8649v0.8649h-0.8649zM33.4865 37.1622h0.8649v0.8649h-0.8649zM36.0811 37.1622h0.8649v0.8649h-0.8649zM37.8108 37.1622h0.8649v0.8649h-0.8649zM14.4595 38.0270h0.8649v0.8649h-0.8649zM16.1892 38.0270h0.8649v0.8649h-0.8649zM17.0541 38.0270h0.8649v0.8649h-0.8649zM18.7838 38.0270h0.8649v0.8649h-0.8649zM19.6486 38.0270h0.8649v0.8649h-0.8649zM23.1081 38.0270h0.8649v0.8649h-0.8649zM26.5676 38.0270h0.8649v0.8649h-0.8649zM29.1622 38.0270h0.8649v0.8649h-0.8649zM30.0270 38.0270h0.8649v0.8649h-0.8649zM30.8919 38.0270h0.8649v0.8649h-0.8649zM32.6216 38.0270h0.8649v0.8649h-0.8649zM33.4865 38.0270h0.8649v0.8649h-0.8649zM34.3514 38.0270h0.8649v0.8649h-0.8649zM35.2162 38.0270h0.8649v0.8649h-0.8649zM36.0811 38.0270h0.8649v0.8649h-0.8649zM37.8108 38.0270h0.8649v0.8649h-0.8649zM38.6757 38.0270h0.8649v0.8649h-0.8649zM15.3243 38.8919h0.8649v0.8649h-0.8649zM17.9189 38.8919h0.8649v0.8649h-0.8649zM20.5135 38.8919h0.8649v0.8649h-0.8649zM23.1081 38.8919h0.8649v0.8649h-0.8649zM25.7027 38.8919h0.8649v0.8649h-0.8649zM26.5676 38.8919h0.8649v0.8649h-0.8649zM28.2973 38.8919h0.8649v0.8649h-0.8649zM30.0270 38.8919h0.8649v0.8649h-0.8649zM31.7568 38.8919h0.8649v0.8649h-0.8649zM32.6216 38.8919h0.8649v0.8649h-0.8649zM34.3514 38.8919h0.8649v0.8649h-0.8649zM38.6757 38.8919h0.8649v0.8649h-0.8649zM14.4595 39.7568h0.8649v0.8649h-0.8649zM16.1892 39.7568h0.8649v0.8649h-0.8649zM19.6486 39.7568h0.8649v0.8649h-0.8649zM20.5135 39.7568h0.8649v0.8649h-0.8649zM21.3784 39.7568h0.8649v0.8649h-0.8649zM24.8378 39.7568h0.8649v0.8649h-0.8649zM26.5676 39.7568h0.8649v0.8649h-0.8649zM27.4324 39.7568h0.8649v0.8649h-0.8649zM30.8919 39.7568h0.8649v0.8649h-0.8649zM31.7568 39.7568h0.8649v0.8649h-0.8649zM32.6216 39.7568h0.8649v0.8649h-0.8649zM33.4865 39.7568h0.8649v0.8649h-0.8649zM34.3514 39.7568h0.8649v0.8649h-0.8649zM35.2162 39.7568h0.8649v0.8649h-0.8649zM36.0811 39.7568h0.8649v0.8649h-0.8649zM37.8108 39.7568h0.8649v0.8649h-0.8649zM38.6757 39.7568h0.8649v0.8649h-0.8649zM21.3784 40.6216h0.8649v0.8649h-0.8649zM23.9730 40.6216h0.8649v0.8649h-0.8649zM24.8378 40.6216h0.8649v0.8649h-0.8649zM26.5676 40.6216h0.8649v0.8649h-0.8649zM27.4324 40.6216h0.8649v0.8649h-0.8649zM30.0270 40.6216h0.8649v0.8649h-0.8649zM30.8919 40.6216h0.8649v0.8649h-0.8649zM31.7568 40.6216h0.8649v0.8649h-0.8649zM35.2162 40.6216h0.8649v0.8649h-0.8649zM14.4595 41.4865h0.8649v0.8649h-0.8649zM15.3243 41.4865h0.8649v0.8649h-0.8649zM16.1892 41.4865h0.8649v0.8649h-0.8649zM17.0541 41.4865h0.8649v0.8649h-0.8649zM17.9189 41.4865h0.8649v0.8649h-0.8649zM18.7838 41.4865h0.8649v0.8649h-0.8649zM19.6486 41.4865h0.8649v0.8649h-0.8649zM22.2432 41.4865h0.8649v0.8649h-0.8649zM23.9730 41.4865h0.8649v0.8649h-0.8649zM25.7027 41.4865h0.8649v0.8649h-0.8649zM27.4324 41.4865h0.8649v0.8649h-0.8649zM28.2973 41.4865h0.8649v0.8649h-0.8649zM30.0270 41.4865h0.8649v0.8649h-0.8649zM30.8919 41.4865h0.8649v0.8649h-0.8649zM31.7568 41.4865h0.8649v0.8649h-0.8649zM33.4865 41.4865h0.8649v0.8649h-0.8649zM35.2162 41.4865h0.8649v0.8649h-0.8649zM36.9459 41.4865h0.8649v0.8649h-0.8649zM37.8108 41.4865h0.8649v0.8649h-0.8649zM38.6757 41.4865h0.8649v0.8649h-0.8649zM14.4595 42.3514h0.8649v0.8649h-0.8649zM19.6486 42.3514h0.8649v0.8649h-0.8649zM23.9730 42.3514h0.8649v0.8649h-0.8649zM24.8378 42.3514h0.8649v0.8649h-0.8649zM27.4324 42.3514h0.8649v0.8649h-0.8649zM28.2973 42.3514h0.8649v0.8649h-0.8649zM29.1622 42.3514h0.8649v0.8649h-0.8649zM30.0270 42.3514h0.8649v0.8649h-0.8649zM31.7568 42.3514h0.8649v0.8649h-0.8649zM35.2162 42.3514h0.8649v0.8649h-0.8649zM38.6757 42.3514h0.8649v0.8649h-0.8649zM14.4595 43.2162h0.8649v0.8649h-0.8649zM16.1892 43.2162h0.8649v0.8649h-0.8649zM17.0541 43.2162h0.8649v0.8649h-0.8649zM17.9189 43.2162h0.8649v0.8649h-0.8649zM19.6486 43.2162h0.8649v0.8649h-0.8649zM21.3784 43.2162h0.8649v0.8649h-0.8649zM22.2432 43.2162h0.8649v0.8649h-0.8649zM23.1081 43.2162h0.8649v0.8649h-0.8649zM23.9730 43.2162h0.8649v0.8649h-0.8649zM24.8378 43.2162h0.8649v0.8649h-0.8649zM27.4324 43.2162h0.8649v0.8649h-0.8649zM28.2973 43.2162h0.8649v0.8649h-0.8649zM30.0270 43.2162h0.8649v0.8649h-0.8649zM30.8919 43.2162h0.8649v0.8649h-0.8649zM31.7568 43.2162h0.8649v0.8649h-0.8649zM32.6216 43.2162h0.8649v0.8649h-0.8649zM33.4865 43.2162h0.8649v0.8649h-0.8649zM34.3514 43.2162h0.8649v0.8649h-0.8649zM35.2162 43.2162h0.8649v0.8649h-0.8649zM36.0811 43.2162h0.8649v0.8649h-0.8649zM37.8108 43.2162h0.8649v0.8649h-0.8649zM14.4595 44.0811h0.8649v0.8649h-0.8649zM16.1892 44.0811h0.8649v0.8649h-0.8649zM17.0541 44.0811h0.8649v0.8649h-0.8649zM17.9189 44.0811h0.8649v0.8649h-0.8649zM19.6486 44.0811h0.8649v0.8649h-0.8649zM23.1081 44.0811h0.8649v0.8649h-0.8649zM25.7027 44.0811h0.8649v0.8649h-0.8649zM27.4324 44.0811h0.8649v0.8649h-0.8649zM29.1622 44.0811h0.8649v0.8649h-0.8649zM30.8919 44.0811h0.8649v0.8649h-0.8649zM32.6216 44.0811h0.8649v0.8649h-0.8649zM34.3514 44.0811h0.8649v0.8649h-0.8649zM35.2162 44.0811h0.8649v0.8649h-0.8649zM36.0811 44.0811h0.8649v0.8649h-0.8649zM37.8108 44.0811h0.8649v0.8649h-0.8649zM14.4595 44.9459h0.8649v0.8649h-0.8649zM16.1892 44.9459h0.8649v0.8649h-0.8649zM17.0541 44.9459h0.8649v0.8649h-0.8649zM17.9189 44.9459h0.8649v0.8649h-0.8649zM19.6486 44.9459h0.8649v0.8649h-0.8649zM21.3784 44.9459h0.8649v0.8649h-0.8649zM23.1081 44.9459h0.8649v0.8649h-0.8649zM25.7027 44.9459h0.8649v0.8649h-0.8649zM27.4324 44.9459h0.8649v0.8649h-0.8649zM30.0270 44.9459h0.8649v0.8649h-0.8649zM32.6216 44.9459h0.8649v0.8649h-0.8649zM33.4865 44.9459h0.8649v0.8649h-0.8649zM34.3514 44.9459h0.8649v0.8649h-0.8649zM35.2162 44.9459h0.8649v0.8649h-0.8649zM38.6757 44.9459h0.8649v0.8649h-0.8649zM14.4595 45.8108h0.8649v0.8649h-0.8649zM19.6486 45.8108h0.8649v0.8649h-0.8649zM22.2432 45.8108h0.8649v0.8649h-0.8649zM23.9730 45.8108h0.8649v0.8649h-0.8649zM24.8378 45.8108h0.8649v0.8649h-0.8649zM25.7027 45.8108h0.8649v0.8649h-0.8649zM27.4324 45.8108h0.8649v0.8649h-0.8649zM29.1622 45.8108h0.8649v0.8649h-0.8649zM30.0270 45.8108h0.8649v0.8649h-0.8649zM32.6216 45.8108h0.8649v0.8649h-0.8649zM37.8108 45.8108h0.8649v0.8649h-0.8649zM14.4595 46.6757h0.8649v0.8649h-0.8649zM15.3243 46.6757h0.8649v0.8649h-0.8649zM16.1892 46.6757h0.8649v0.8649h-0.8649zM17.0541 46.6757h0.8649v0.8649h-0.8649zM17.9189 46.6757h0.8649v0.8649h-0.8649zM18.7838 46.6757h0.8649v0.8649h-0.8649zM19.6486 46.6757h0.8649v0.8649h-0.8649zM21.3784 46.6757h0.8649v0.8649h-0.8649zM23.1081 46.6757h0.8649v0.8649h-0.8649zM23.9730 46.6757h0.8649v0.8649h-0.8649zM24.8378 46.6757h0.8649v0.8649h-0.8649zM25.7027 46.6757h0.8649v0.8649h-0.8649zM26.5676 46.6757h0.8649v0.8649h-0.8649zM27.4324 46.6757h0.8649v0.8649h-0.8649zM31.7568 46.6757h0.8649v0.8649h-0.8649zM33.4865 46.6757h0.8649v0.8649h-0.8649zM34.3514 46.6757h0.8649v0.8649h-0.8649zM35.2162 46.6757h0.8649v0.8649h-0.8649zM37.8108 46.6757h0.8649v0.8649h-0.8649zM38.6757 46.6757h0.8649v0.8649h-0.8649z" fill="black"/>
  <rect x="167" y="19" width="32" height="32" fill="white"/><path d="M170.4595 22.4595h0.8649v0.8649h-0.8649zM171.3243 22.4595h0.8649v0.8649h-0.8649zM172.1892 22.4595h0.8649v0.8649h-0.8649zM173.0541 22.4595h0.8649v0.8649h-0.8649zM173.9189 22.4595h0.8649v0.8649h-0.8649zM174.7838 22.4595h0.8649v0.8649h-0.8649zM175.6486 22.4595h0.8649v0.8649h-0.8649zM178.2432 22.4595h0.8649v0.8649h-0.8649zM179.1081 22.4595h0.8649v0.8649h-0.8649zM182.5676 22.4595h0.8649v0.8649h-0.8649zM186.0270 22.4595h0.8649v0.8649h-0.8649zM189.4865 22.4595h0.8649v0.8649h-0.8649zM190.3514 22.4595h0.8649v0.8649h-0.8649zM191.2162 22.4595h0.8649v0.8649h-0.8649zM192.0811 22.4595h0.8649v0.8649h-0.8649zM192.9459 22.4595h0.8649v0.8649h-0.8649zM193.8108 22.4595h0.8649v0.8649h-0.8649zM194.6757 22.4595h0.8649v0.8649h-0.8649zM170.4595 23.3243h0.8649v0.8649h-0.8649zM175.6486 23.3243h0.8649v0.8649h-0.8649zM177.3784 23.3243h0.8649v0.8649h-0.8649zM178.2432 23.3243h0.8649v0.8649h-0.8649zM179.1081 23.3243h0.8649v0.8649h-0.8649zM179.9730 23.3243h0.8649v0.8649h-0.8649zM180.8378 23.3243h0.8649v0.8649h-0.8649zM181.7027 23.3243h0.8649v0.8649h-0.8649zM185.1622 23.3243h0.8649v0.8649h-0.8649zM186.8919 23.3243h0.8649v0.8649h-0.8649zM189.4865 23.3243h0.8649v0.8649h-0.8649zM194.6757 23.3243h0.8649v0.8649h-0.8649zM170.4595 24.1892h0.8649v0.8649h-0.8649zM172.1892 24.1892h0.8649v0.8649h-0.8649zM173.0541 24.1892h0.8649v0.8649h-0.8649zM173.9189 24.1892h0.8649v0.8649h-0.8649zM175.6486 24.1892h0.8649v0.8649h-0.8649zM179.1081 24.1892h0.8649v0.8649h-0.8649zM183.4324 24.1892h0.8649v0.8649h-0.8649zM185.1622 24.1892h0.8649v0.8649h-0.8649zM186.0270 24.1892h0.8649v0.8649h-0.8649zM189.4865 24.1892h0.8649v0.8649h-0.8649zM191.2162 24.1892h0.8649v0.8649h-0.8649zM192.0811 24.1892h0.8649v0.8649h-0.8649zM192.9459 24.1892h0.8649v0.8649h-0.8649zM194.6757 24.1892h0.8649v0.8649h-0.8649zM170.4595 25.0541h0.8649v0.8649h-0.8649zM172.1892 25.0541h0.8649v0.8649h-0.8649zM173.0541 25.0541h0.8649v0.8649h-0.8649zM173.9189 25.0541h0.8649v0.8649h-0.8649zM175.6486 25.0541h0.8649v0.8649h-0.8649zM179.1081 25.0541h0.8649v0.8649h-0.8649zM179.9730 25.0541h0.8649v0.8649h-0.8649zM180.8378 25.0541h0.8649v0.8649h-0.8649zM181.7027 25.0541h0.8649v0.8649h-0.8649zM189.4865 25.0541h0.8649v0.8649h-0.8649zM191.2162 25.0541h0.8649v0.8649h-0.8649zM192.0811 25.0541h0.8649v0.8649h-0.8649zM192.9459 25.0541h0.8649v0.8649h-0.8649zM194.6757 25.0541h0.8649v0.8649h-0.8649zM170.4595 25.9189h0.8649v0.8649h-0.8649zM172.1892 25.9189h0.8649v0.8649h-0.8649zM173.0541 25.9189h0.8649v0.8649h-0.8649zM173.9189 25.9189h0.8649v0.8649h-0.8649zM175.6486 25.9189h0.8649v0.8649h-0.8649zM177.3784 25.9189h0.8649v0.8649h-0.8649zM179.1081 25.9189h0.8649v0.8649h-0.8649zM179.9730 25.9189h0.8649v0.8649h-0.8649zM180.8378 25.9189h0.8649v0.8649h-0.8649zM181.7027 25.9189h0.8649v0.8649h-0.8649zM184.2973 25.9189h0.8649v0.8649h-0.8649zM186.0270 25.9189h0.8649v0.8649h-0.8649zM187.7568 25.9189h0.8649v0.8649h-0.8649zM189.4865 25.9189h0.8649v0.8649h-0.8649zM191.2162 25.9189h0.8649v0.8649h-0.8649zM192.0811 25.9189h0.8649v0.8649h-0.8649zM192.9459 25.9189h0.8649v0.8649h-0.8649zM194.6757 25.9189h0.8649v0.8649h-0.8649zM170.4595 26.7838h0.8649v0.8649h-0.8649zM175.6486 26.7838h0.8649v0.8649h-0.8649zM179.1081 26.7838h0.8649v0.8649h-0.8649zM182.5676 26.7838h0.8649v0.8649h-0.8649zM183.4324 26.7838h0.8649v0.8649h-0.8649zM186.0270 26.7838h0.8649v0.8649h-0.8649zM187.7568 26.7838h0.8649v0.8649h-0.8649zM189.4865 26.7838h0.8649v0.8649h-0.8649zM194.6757 26.7838h0.8649v0.8649h-0.8649zM170.4595 27.6486h0.8649v0.8649h-0.8649zM171.3243 27.6486h0.8649v0.8649h-0.8649zM172.1892 27.6486h0.8649v0.8649h-0.8649zM173.0541 27.6486h0.8649v0.8649h-0.8649zM173.9189 27.6486h0.8649v0.8649h-0.8649zM174.7838 27.6486h0.8649v0.8649h-0.8649zM175.6486 27.6486h0.8649v0.8649h-0.8649zM177.3784 27.6486h0.8649v0.8649h-0.8649zM179.1081 27.6486h0.8649v0.8649h-0.8649zM180.8378 27.6486h0.8649v0.8649h-0.8649zM182.5676 27.6486h0.8649v0.8649h-0.8649zM184.2973 27.6486h0.8649v0.8649h-0.8649zM186.0270 27.6486h0.8649v0.8649h-0.8649zM187.7568 27.6486h0.8649v0.8649h-0.8649zM189.4865 27.6486h0.8649v0.8649h-0.8649zM190.3514 27.6486h0.8649v0.8649h-0.8649zM191.2162 27.6486h0.8649v0.8649h-0.8649zM192.0811 27.6486h0.8649v0.8649h-0.8649zM192.9459 27.6486h0.8649v0.8649h-0.8649zM193.8108 27.6486h0.8649v0.8649h-0.8649zM194.6757 27.6486h0.8649v0.8649h-0.8649zM179.1081 28.5135h0.8649v0.8649h-0.8649zM179.9730 28.5135h0.8649v0.8649h-0.8649zM183.4324 28.5135h0.8649v0.8649h-0.8649zM185.1622 28.5135h0.8649v0.8649h-0.8649zM186.8919 28.5135h0.8649v0.8649h-0.8649zM187.7568 28.5135h0.8649v0.8649h-0.8649zM170.4595 29.3784h0.8649v0.8649h-0.8649zM172.1892 29.3784h0.8649v0.8649h-0.8649zM173.9189 29.3784h0.8649v0.8649h-0.8649zM175.6486 29.3784h0.8649v0.8649h-0.8649zM178.2432 29.3784h0.8649v0.8649h-0.8649zM179.1081 29.3784h0.8649v0.8649h-0.8649zM179.9730 29.3784h0.8649v0.8649h-0.8649zM180.8378 29.3784h0.8649v0.8649h-0.8649zM184.2973 29.3784h0.8649v0.8649h-0.8649zM185.1622 29.3784h0.8649v0.8649h-0.8649zM186.0270 29.3784h0.8649v0.8649h-0.8649zM187.7568 29.3784h0.8649v0.8649h-0.8649zM191.2162 29.3784h0.8649v0.8649h-0.8649zM193.8108 29.3784h0.8649v0.8649h-0.8649zM171.3243 30.2432h0.8649v0.8649h-0.8649zM172.1892 30.2432h0.8649v0.8649h-0.8649zM173.0541 30.2432h0.8649v0.8649h-0.8649zM174.7838 30.2432h0.8649v0.8649h-0.8649zM176.5135 30.2432h0.8649v0.8649h-0.8649zM177.3784 30.2432h0.8649v0.8649h-0.8649zM178.2432 30.2432h0.8649v0.8649h-0.8649zM179.9730 30.2432h0.8649v0.8649h-0.8649zM181.7027 30.2432h0.8649v0.8649h-0.8649zM183.4324 30.2432h0.8649v0.8649h-0.8649zM185.1622 30.2432h0.8649v0.8649h-0.8649zM186.8919 30.2432h0.8649v0.8649h-0.8649zM189.4865 30.2432h0.8649v0.8649h-0.8649zM190.3514 30.2432h0.8649v0.8649h-0.8649zM192.0811 30.2432h0.8649v0.8649h-0.8649zM194.6757 30.2432h0.8649v0.8649h-0.8649zM170.4595 31.1081h0.8649v0.8649h-0.8649zM171.3243 31.1081h0.8649v0.8649h-0.8649zM172.1892 31.1081h0.8649v0.8649h-0.8649zM173.0541 31.1081h0.8649v0.8649h-0.8649zM173.9189 31.1081h0.8649v0.8649h-0.8649zM175.6486 31.1081h0.8649v0.8649h-0.8649zM176.5135 31.1081h0.8649v0.8649h-0.8649zM177.3784 31.1081h0.8649v0.8649h-0.8649zM178.2432 31.1081h0.8649v0.8649h-0.8649zM182.5676 31.1081h0.8649v0.8649h-0.8649zM183.4324 31.1081h0.8649v0.8649h-0.8649zM184.2973 31.1081h0.8649v0.8649h-0.8649zM185.1622 31.1081h0.8649v0.8649h-0.8649zM186.0270 31.1081h0.8649v0.8649h-0.8649zM187.7568 31.1081h0.8649v0.8649h-0.8649zM189.4865 31.1081h0.8649v0.8649h-0.8649zM191.2162 31.1081h0.8649v0.8649h-0.8649zM192.0811 31.1081h0.8649v0.8649h-0.8649zM192.9459 31.1081h0.8649v0.8649h-0.8649zM194.6757 31.1081h0.8649v0.8649h-0.8649zM170.4595 31.9730h0.8649v0.8649h-0.8649zM173.9189 31.9730h0.8649v0.8649h-0.8649zM174.7838 31.9730h0.8649v0.8649h-0.8649zM177.3784 31.9730h0.8649v0.8649h-0.8649zM178.2432 31.9730h0.8649v0.8649h-0.8649zM179.1081 31.9730h0.8649v0.8649h-0.8649zM181.7027 31.9730h0.8649v0.8649h-0.8649zM182.5676 31.9730h0.8649v0.8649h-0.8649zM183.4324 31.9730h0.8649v0.8649h-0.8649zM184.2973 31.9730h0.8649v0.8649h-0.8649zM186.0270 31.9730h0.8649v0.8649h-0.8649zM186.8919 31.9730h0.8649v0.8649h-0.8649zM191.2162 31.9730h0.8649v0.8649h-0.8649zM193.8108 31.9730h0.8649v0.8649h-0.8649zM171.3243 32.8378h0.8649v0.8649h-0.8649zM174.7838 32.8378h0.8649v0.8649h-0.8649zM175.6486 32.8378h0.8649v0.8649h-0.8649zM176.5135 32.8378h0.8649v0.8649h-0.8649zM177.3784 32.8378h0.8649v0.8649h-0.8649zM178.2432 32.8378h0.8649v0.8649h-0.8649zM179.9730 32.8378h0.8649v0.8649h-0.8649zM180.8378 32.8378h0.8649v0.8649h-0.8649zM182.5676 32.8378h0.8649v0.8649h-0.8649zM185.1622 32.8378h0.8649v0.8649h-0.8649zM188.6216 32.8378h0.8649v0.8649h-0.8649zM189.4865 32.8378h0.8649v0.8649h-0.8649zM190.3514 32.8378h0.8649v0.8649h-0.8649zM192.0811 32.8378h0.8649v0.8649h-0.8649zM193.8108 32.8378h0.8649v0.8649h-0.8649zM194.6757 32.8378h0.8649v0.8649h-0.8649zM174.7838 33.7027h0.8649v0.8649h-0.8649zM178.2432 33.7027h0.8649v0.8649h-0.8649zM179.1081 33.7027h0.8649v0.8649h-0.8649zM179.9730 33.7027h0.8649v0.8649h-0.8649zM182.5676 33.7027h0.8649v0.8649h-0.8649zM183.4324 33.7027h0.8649v0.8649h-0.8649zM185.1622 33.7027h0.8649v0.8649h-0.8649zM186.8919 33.7027h0.8649v0.8649h-0.8649zM189.4865 33.7027h0.8649v0.8649h-0.8649zM192.9459 33.7027h0.8649v0.8649h-0.8649zM193.8108 33.7027h0.8649v0.8649h-0.8649zM170.4595 34.5676h0.8649v0.8649h-0.8649zM173.9189 34.5676h0.8649v0.8649h-0.8649zM175.6486 34.5676h0.8649v0.8649h-0.8649zM176.5135 34.5676h0.8649v0.8649h-0.8649zM178.2432 34.5676h0.8649v0.8649h-0.8649zM181.7027 34.5676h0.8649v0.8649h-0.8649zM185.1622 34.5676h0.8649v0.8649h-0.8649zM186.8919 34.5676h0.8649v0.8649h-0.8649zM187.7568 34.5676h0.8649v0.8649h-0.8649zM188.6216 34.5676h0.8649v0.8649h-0.8649zM190.3514 34.5676h0.8649v0.8649h-0.8649zM191.2162 34.5676h0.8649v0.8649h-0.8649zM192.9459 34.5676h0.8649v0.8649h-0.8649zM193.8108 34.5676h0.8649v0.8649h-0.8649zM194.6757 34.5676h0.8649v0.8649h-0.8649zM170.4595 35.4324h0.8649v0.8649h-0.8649zM171.3243 35.4324h0.8649v0.8649h-0.8649zM173.0541 35.4324h0.8649v0.8649h-0.8649zM179.1081 35.4324h0.8649v0.8649h-0.8649zM183.4324 35.4324h0.8649v0.8649h-0.8649zM184.2973 35.4324h0.8649v0.8649h-0.8649zM188.6216 35.4324h0.8649v0.8649h-0.8649zM191.2162 35.4324h0.8649v0.8649h-0.8649zM193.8108 35.4324h0.8649v0.8649h-0.8649zM170.4595 36.2973h0.8649v0.8649h-0.8649zM172.1892 36.2973h0.8649v0.8649h-0.8649zM173.0541 36.2973h0.8649v0.8649h-0.8649zM173.9189 36.2973h0.8649v0.8649h-0.8649zM175.6486 36.2973h0.8649v0.8649h-0.8649zM177.3784 36.2973h0.8649v0.8649h-0.8649zM179.1081 36.2973h0.8649v0.8649h-0.8649zM179.9730 36.2973h0.8649v0.8649h-0.8649zM180.8378 36.2973h0.8649v0.8649h-0.8649zM185.1622 36.2973h0.8649v0.8649h-0.8649zM186.0270 36.2973h0.8649v0.8649h-0.8649zM188.6216 36.2973h0.8649v0.8649h-0.8649zM189.4865 36.2973h0.8649v0.8649h-0.8649zM192.0811 36.2973h0.8649v0.8649h-0.8649zM193.8108 36.2973h0.8649v0.8649h-0.8649zM173.0541 37.1622h0.8649v0.8649h-0.8649zM174.7838 37.1622h0.8649v0.8649h-0.8649zM177.3784 37.1622h0.8649v0.8649h-0.8649zM178.2432 37.1622h0.8649v0.8649h-0.8649zM180.8378 37.1622h0.8649v0.8649h-0.8649zM181.7027 37.1622h0.8649v0.8649h-0.8649zM183.4324 37.1622h0.8649v0.8649h-0.8649zM186.0270 37.1622h0.8649v0.8649h-0.8649zM186.8919 37.1622h0.8649v0.8649h-0.8649zM187.7568 37.1622h0.8649v0.8649h-0.8649zM188.6216 37.1622h0.8649v0.8649h-0.8649zM189.4865 37.1622h0.8649v0.8649h-0.8649zM192.0811 37.1622h0.8649v0.8649h-0.8649zM193.8108 37.1622h0.8649v0.8649h-0.8649zM170.4595 38.0270h0.8649v0.8649h-0.8649zM173.9189 38.0270h0.8649v0.8649h-0.8649zM174.7838 38.0270h0.8649v0.8649h-0.8649zM175.6486 38.0270h0.8649v0.8649h-0.8649zM176.5135 38.0270h0.8649v0.8649h-0.8649zM179.1081 38.0270h0.8649v0.8649h-0.8649zM179.9730 38.0270h0.8649v0.8649h-0.8649zM182.5676 38.0270h0.8649v0.8649h-0.8649zM185.1622 38.0270h0.8649v0.8649h-0.8649zM186.0270 38.0270h0.8649v0.8649h-0.8649zM186.8919 38.0270h0.8649v0.8649h-0.8649zM188.6216 38.0270h0.8649v0.8649h-0.8649zM189.4865 38.0270h0.8649v0.8649h-0.8649zM190.3514 38.0270h0.8649v0.8649h-0.8649zM191.2162 38.0270h0.8649v0.8649h-0.8649zM192.0811 38.0270h0.8649v0.8649h-0.8649zM193.8108 38.0270h0.8649v0.8649h-0.8649zM194.6757 38.0270h0.8649v0.8649h-0.8649zM171.3243 38.8919h0.8649v0.8649h-0.8649zM173.0541 38.8919h0.8649v0.8649h-0.8649zM174.7838 38.8919h0.8649v0.8649h-0.8649zM176.5135 38.8919h0.8649v0.8649h-0.8649zM177.3784 38.8919h0.8649v0.8649h-0.8649zM178.2432 38.8919h0.8649v0.8649h-0.8649zM179.9730 38.8919h0.8649v0.8649h-0.8649zM180.8378 38.8919h0.8649v0.8649h-0.8649zM181.7027 38.8919h0.8649v0.8649h-0.8649zM182.5676 38.8919h0.8649v0.8649h-0.8649zM184.2973 38.8919h0.8649v0.8649h-0.8649zM186.0270 38.8919h0.8649v0.8649h-0.8649zM187.7568 38.8919h0.8649v0.8649h-0.8649zM188.6216 38.8919h0.8649v0.8649h-0.8649zM190.3514 38.8919h0.8649v0.8649h-0.8649zM194.6757 38.8919h0.8649v0.8649h-0.8649zM170.4595 39.7568h0.8649v0.8649h-0.8649zM172.1892 39.7568h0.8649v0.8649h-0.8649zM175.6486 39.7568h0.8649v0.8649h-0.8649zM177.3784 39.7568h0.8649v0.8649h-0.8649zM179.9730 39.7568h0.8649v0.8649h-0.8649zM182.5676 39.7568h0.8649v0.8649h-0.8649zM183.4324 39.7568h0.8649v0.8649h-0.8649zM186.8919 39.7568h0.8649v0.8649h-0.8649zM187.7568 39.7568h0.8649v0.8649h-0.8649zM188.6216 39.7568h0.8649v0.8649h-0.8649zM189.4865 39.7568h0.8649v0.8649h-0.8649zM190.3514 39.7568h0.8649v0.8649h-0.8649zM191.2162 39.7568h0.8649v0.8649h-0.8649zM192.0811 39.7568h0.8649v0.8649h-0.8649zM193.8108 39.7568h0.8649v0.8649h-0.8649zM194.6757 39.7568h0.8649v0.8649h-0.8649zM177.3784 40.6216h0.8649v0.8649h-0.8649zM178.2432 40.6216h0.8649v0.8649h-0.8649zM179.1081 40.6216h0.8649v0.8649h-0.8649zM182.5676 40.6216h0.8649v0.8649h-0.8649zM183.4324 40.6216h0.8649v0.8649h-0.8649zM186.0270 40.6216h0.8649v0.8649h-0.8649zM186.8919 40.6216h0.8649v0.8649h-0.8649zM187.7568 40.6216h0.8649v0.8649h-0.8649zM191.2162 40.6216h0.8649v0.8649h-0.8649zM170.4595 41.4865h0.8649v0.8649h-0.8649zM171.3243 41.4865h0.8649v0.8649h-0.8649zM172.1892 41.4865h0.8649v0.8649h-0.8649zM173.0541 41.4865h0.8649v0.8649h-0.8649zM173.9189 41.4865h0.8649v0.8649h-0.8649zM174.7838 41.4865h0.8649v0.8649h-0.8649zM175.6486 41.4865h0.8649v0.8649h-0.8649zM178.2432 41.4865h0.8649v0.8649h-0.8649zM179.1081 41.4865h0.8649v0.8649h-0.8649zM179.9730 41.4865h0.8649v0.8649h-0.8649zM181.7027 41.4865h0.8649v0.8649h-0.8649zM183.4324 41.4865h0.8649v0.8649h-0.8649zM184.2973 41.4865h0.8649v0.8649h-0.8649zM186.0270 41.4865h0.8649v0.8649h-0.8649zM186.8919 41.4865h0.8649v0.8649h-0.8649zM187.7568 41.4865h0.8649v0.8649h-0.8649zM189.4865 41.4865h0.8649v0.8649h-0.8649zM191.2162 41.4865h0.8649v0.8649h-0.8649zM192.9459 41.4865h0.8649v0.8649h-0.8649zM193.8108 41.4865h0.8649v0.8649h-0.8649zM194.6757 41.4865h0.8649v0.8649h-0.8649zM170.4595 42.3514h0.8649v0.8649h-0.8649zM175.6486 42.3514h0.8649v0.8649h-0.8649zM178.2432 42.3514h0.8649v0.8649h-0.8649zM180.8378 42.3514h0.8649v0.8649h-0.8649zM183.4324 42.3514h0.8649v0.8649h-0.8649zM184.2973 42.3514h0.8649v0.8649h-0.8649zM185.1622 42.3514h0.8649v0.8649h-0.8649zM186.0270 42.3514h0.8649v0.8649h-0.8649zM187.7568 42.3514h0.8649v0.8649h-0.8649zM191.2162 42.3514h0.8649v0.8649h-0.8649zM194.6757 42.3514h0.8649v0.8649h-0.8649zM170.4595 43.2162h0.8649v0.8649h-0.8649zM172.1892 43.2162h0.8649v0.8649h-0.8649zM173.0541 43.2162h0.8649v0.8649h-0.8649zM173.9189 43.2162h0.8649v0.8649h-0.8649zM175.6486 43.2162h0.8649v0.8649h-0.8649zM177.3784 43.2162h0.8649v0.8649h-0.8649zM183.4324 43.2162h0.8649v0.8649h-0.8649zM184.2973 43.2162h0.8649v0.8649h-0.8649zM186.0270 43.2162h0.8649v0.8649h-0.8649zM186.8919 43.2162h0.8649v0.8649h-0.8649zM187.7568 43.2162h0.8649v0.8649h-0.8649zM188.6216 43.2162h0.8649v0.8649h-0.8649zM189.4865 43.2162h0.8649v0.8649h-0.8649zM190.3514 43.2162h0.8649v0.8649h-0.8649zM191.2162 43.2162h0.8649v0.8649h-0.8649zM192.0811 43.2162h0.8649v0.8649h-0.8649zM193.8108 43.2162h0.8649v0.8649h-0.8649zM170.4595 44.0811h0.8649v0.8649h-0.8649zM172.1892 44.0811h0.8649v0.8649h-0.8649zM173.0541 44.0811h0.8649v0.8649h-0.8649zM173.9189 44.0811h0.8649v0.8649h-0.8649zM175.6486 44.0811h0.8649v0.8649h-0.8649zM178.2432 44.0811h0.8649v0.8649h-0.8649zM179.1081 44.0811h0.8649v0.8649h-0.8649zM181.7027 44.0811h0.8649v0.8649h-0.8649zM183.4324 44.0811h0.8649v0.8649h-0.8649zM185.1622 44.0811h0.8649v0.8649h-0.8649zM186.8919 44.0811h0.8649v0.8649h-0.8649zM188.6216 44.0811h0.8649v0.8649h-0.8649zM190.3514 44.0811h0.8649v0.8649h-0.8649zM191.2162 44.0811h0.8649v0.8649h-0.8649zM192.0811 44.0811h0.8649v0.8649h-0.8649zM193.8108 44.0811h0.8649v0.8649h-0.8649zM170.4595 44.9459h0.8649v0.8649h-0.8649zM172.1892 44.9459h0.8649v0.8649h-0.8649zM173.0541 44.9459h0.8649v0.8649h-0.8649zM173.9189 44.9459h0.8649v0.8649h-0.8649zM175.6486 44.9459h0.8649v0.8649h-0.8649zM177.3784 44.9459h0.8649v0.8649h-0.8649zM179.9730 44.9459h0.8649v0.8649h-0.8649zM183.4324 44.9459h0.8649v0.8649h-0.8649zM186.0270 44.9459h0.8649v0.8649h-0.8649zM188.6216 44.9459h0.8649v0.8649h-0.8649zM189.4865 44.9459h0.8649v0.8649h-0.8649zM190.3514 44.9459h0.8649v0.8649h-0.8649zM191.2162 44.9459h0.8649v0.8649h-0.8649zM194.6757 44.9459h0.8649v0.8649h-0.8649zM170.4595 45.8108h0.8649v0.8649h-0.8649zM175.6486 45.8108h0.8649v0.8649h-0.8649zM178.2432 45.8108h0.8649v0.8649h-0.8649zM179.9730 45.8108h0.8649v0.8649h-0.8649zM180.8378 45.8108h0.8649v0.8649h-0.8649zM183.4324 45.8108h0.8649v0.8649h-0.8649zM185.1622 45.8108h0.8649v0.8649h-0.8649zM186.0270 45.8108h0.8649v0.8649h-0.8649zM188.6216 45.8108h0.8649v0.8649h-0.8649zM193.8108 45.8108h0.8649v0.8649h-0.8649zM170.4595 46.6757h0.8649v0.8649h-0.8649zM171.3243 46.6757h0.8649v0.8649h-0.8649zM172.1892 46.6757h0.8649v0.8649h-0.8649zM173.0541 46.6757h0.8649v0.8649h-0.8649zM173.9189 46.6757h0.8649v0.8649h-0.8649zM174.7838 46.6757h0.8649v0.8649h-0.8649zM175.6486 46.6757h0.8649v0.8649h-0.8649zM177.3784 46.6757h0.8649v0.8649h-0.8649zM178.2432 46.6757h0.8649v0.8649h-0.8649zM179.1081 46.6757h0.8649v0.8649h-0.8649zM179.9730 46.6757h0.8649v0.8649h-0.8649zM181.7027 46.6757h0.8649v0.8649h-0.8649zM182.5676 46.6757h0.8649v0.8649h-0.8649zM183.4324 46.6757h0.8649v0.8649h-0.8649zM187.7568 46.6757h0.8649v0.8649h-0.8649zM189.4865 46.6757h0.8649v0.8649h-0.8649zM190.3514 46.6757h0.8649v0.8649h-0.8649zM191.2162 46.6757h0.8649v0.8649h-0.8649zM193.8108 46.6757h0.8649v0.8649h-0.8649zM194.6757 46.6757h0.8649v0.8649h-0.8649z" fill="black"/>
  <rect x="11" y="247" width="32" height="32" fill="white"/><path d="M14.4595 250.4595h0.8649v0.8649h-0.8649zM15.3243 250.4595h0.8649v0.8649h-0.8649zM16.1892 250.4595h0.8649v0.8649h-0.8649zM17.0541 250.4595h0.8649v0.8649h-0.8649zM17.9189 250.4595h0.8649v0.8649h-0.8649zM18.7838 250.4595h0.8649v0.8649h-0.8649zM19.6486 250.4595h0.8649v0.8649h-0.8649zM21.3784 250.4595h0.8649v0.8649h-0.8649zM22.2432 250.4595h0.8649v0.8649h-0.8649zM23.1081 250.4595h0.8649v0.8649h-0.8649zM25.7027 250.4595h0.8649v0.8649h-0.8649zM26.5676 250.4595h0.8649v0.8649h-0.8649zM28.2973 250.4595h0.8649v0.8649h-0.8649zM30.0270 250.4595h0.8649v0.8649h-0.8649zM30.8919 250.4595h0.8649v0.8649h-0.8649zM33.4865 250.4595h0.8649v0.8649h-0.8649zM34.3514 250.4595h0.8649v0.8649h-0.8649zM35.2162 250.4595h0.8649v0.8649h-0.8649zM36.0811 250.4595h0.8649v0.8649h-0.8649zM36.9459 250.4595h0.8649v0.8649h-0.8649zM37.8108 250.4595h0.8649v0.8649h-0.8649zM38.6757 250.4595h0.8649v0.8649h-0.8649zM14.4595 251.3243h0.8649v0.8649h-0.8649zM19.6486 251.3243h0.8649v0.8649h-0.8649zM23.1081 251.3243h0.8649v0.8649h-0.8649zM25.7027 251.3243h0.8649v0.8649h-0.8649zM26.5676 251.3243h0.8649v0.8649h-0.8649zM27.4324 251.3243h0.8649v0.8649h-0.8649zM30.0270 251.3243h0.8649v0.8649h-0.8649zM30.8919 251.3243h0.8649v0.8649h-0.8649zM31.7568 251.3243h0.8649v0.8649h-0.8649zM33.4865 251.3243h0.8649v0.8649h-0.8649zM38.6757 251.3243h0.8649v0.8649h-0.8649zM14.4595 252.1892h0.8649v0.8649h-0.8649zM16.1892 252.1892h0.8649v0.8649h-0.8649zM17.0541 252.1892h0.8649v0.8649h-0.8649zM17.9189 252.1892h0.8649v0.8649h-0.8649zM19.6486 252.1892h0.8649v0.8649h-0.8649zM23.1081 252.1892h0.8649v0.8649h-0.8649zM23.9730 252.1892h0.8649v0.8649h-0.8649zM24.8378 252.1892h0.8649v0.8649h-0.8649zM26.5676 252.1892h0.8649v0.8649h-0.8649zM31.7568 252.1892h0.8649v0.8649h-0.8649zM33.4865 252.1892h0.8649v0.8649h-0.8649zM35.2162 252.1892h0.8649v0.8649h-0.8649zM36.0811 252.1892h0.8649v0.8649h-0.8649zM36.9459 252.1892h0.8649v0.8649h-0.8649zM38.6757 252.1892h0.8649v0.8649h-0.8649zM14.4595 253.0541h0.8649v0.8649h-0.8649zM16.1892 253.0541h0.8649v0.8649h-0.8649zM17.0541 253.0541h0.8649v0.8649h-0.8649zM17.9189 253.0541h0.8649v0.8649h-0.8649zM19.6486 253.0541h0.8649v0.8649h-0.8649zM21.3784 253.0541h0.8649v0.8649h-0.8649zM23.1081 253.0541h0.8649v0.8649h-0.8649zM24.8378 253.0541h0.8649v0.8649h-0.8649zM28.2973 253.0541h0.8649v0.8649h-0.8649zM30.8919 253.0541h0.8649v0.8649h-0.8649zM33.4865 253.0541h0.8649v0.8649h-0.8649zM35.2162 253.0541h0.8649v0.8649h-0.8649zM36.0811 253.0541h0.8649v0.8649h-0.8649zM36.9459 253.0541h0.8649v0.8649h-0.8649zM38.6757 253.0541h0.8649v0.8649h-0.8649zM14.4595 253.9189h0.8649v0.8649h-0.8649zM16.1892 253.9189h0.8649v0.8649h-0.8649zM17.0541 253.9189h0.8649v0.8649h-0.8649zM17.9189 253.9189h0.8649v0.8649h-0.8649zM19.6486 253.9189h0.8649v0.8649h-0.8649zM21.3784 253.9189h0.8649v0.8649h-0.8649zM23.1081 253.9189h0.8649v0.8649h-0.8649zM24.8378 253.9189h0.8649v0.8649h-0.8649zM30.0270 253.9189h0.8649v0.8649h-0.8649zM30.8919 253.9189h0.8649v0.8649h-0.8649zM31.7568 253.9189h0.8649v0.8649h-0.8649zM33.4865 253.9189h0.8649v0.8649h-0.8649zM35.2162 253.9189h0.8649v0.8649h-0.8649zM36.0811 253.9189h0.8649v0.8649h-0.8649zM36.9459 253.9189h0.8649v0.8649h-0.8649zM38.6757 253.9189h0.8649v0.8649h-0.8649zM14.4595 254.7838h0.8649v0.8649h-0.8649zM19.6486 254.7838h0.8649v0.8649h-0.8649zM21.3784 254.7838h0.8649v0.8649h-0.8649zM22.2432 254.7838h0.8649v0.8649h-0.8649zM23.9730 254.7838h0.8649v0.8649h-0.8649zM29.1622 254.7838h0.8649v0.8649h-0.8649zM33.4865 254.7838h0.8649v0.8649h-0.8649zM38.6757 254.7838h0.8649v0.8649h-0.8649zM14.4595 255.6486h0.8649v0.8649h-0.8649zM15.3243 255.6486h0.8649v0.8649h-0.8649zM16.1892 255.6486h0.8649v0.8649h-0.8649zM17.0541 255.6486h0.8649v0.8649h-0.8649zM17.9189 255.6486h0.8649v0.8649h-0.8649zM18.7838 255.6486h0.8649v0.8649h-0.8649zM19.6486 255.6486h0.8649v0.8649h-0.8649zM21.3784 255.6486h0.8649v0.8649h-0.8649zM23.1081 255.6486h0.8649v0.8649h-0.8649zM24.8378 255.6486h0.8649v0.8649h-0.8649zM26.5676 255.6486h0.8649v0.8649h-0.8649zM28.2973 255.6486h0.8649v0.8649h-0.8649zM30.0270 255.6486h0.8649v0.8649h-0.8649zM31.7568 255.6486h0.8649v0.8649h-0.8649zM33.4865 255.6486h0.8649v0.8649h-0.8649zM34.3514 255.6486h0.8649v0.8649h-0.8649zM35.2162 255.6486h0.8649v0.8649h-0.8649zM36.0811 255.6486h0.8649v0.8649h-0.8649zM36.9459 255.6486h0.8649v0.8649h-0.8649zM37.8108 255.6486h0.8649v0.8649h-0.8649zM38.6757 255.6486h0.8649v0.8649h-0.8649zM21.3784 256.5135h0.8649v0.8649h-0.8649zM23.1081 256.5135h0.8649v0.8649h-0.8649zM23.9730 256.5135h0.8649v0.8649h-0.8649zM25.7027 256.5135h0.8649v0.8649h-0.8649zM27.4324 256.5135h0.8649v0.8649h-0.8649zM28.2973 256.5135h0.8649v0.8649h-0.8649zM29.1622 256.5135h0.8649v0.8649h-0.8649zM31.7568 256.5135h0.8649v0.8649h-0.8649zM14.4595 257.3784h0.8649v0.8649h-0.8649zM17.9189 257.3784h0.8649v0.8649h-0.8649zM19.6486 257.3784h0.8649v0.8649h-0.8649zM20.5135 257.3784h0.8649v0.8649h-0.8649zM21.3784 257.3784h0.8649v0.8649h-0.8649zM22.2432 257.3784h0.8649v0.8649h-0.8649zM25.7027 257.3784h0.8649v0.8649h-0.8649zM29.1622 257.3784h0.8649v0.8649h-0.8649zM30.0270 257.3784h0.8649v0.8649h-0.8649zM30.8919 257.3784h0.8649v0.8649h-0.8649zM31.7568 257.3784h0.8649v0.8649h-0.8649zM32.6216 257.3784h0.8649v0.8649h-0.8649zM33.4865 257.3784h0.8649v0.8649h-0.8649zM34.3514 257.3784h0.8649v0.8649h-0.8649zM35.2162 257.3784h0.8649v0.8649h-0.8649zM36.0811 257.3784h0.8649v0.8649h-0.8649zM38.6757 257.3784h0.8649v0.8649h-0.8649zM15.3243 258.2432h0.8649v0.8649h-0.8649zM16.1892 258.2432h0.8649v0.8649h-0.8649zM17.0541 258.2432h0.8649v0.8649h-0.8649zM18.7838 258.2432h0.8649v0.8649h-0.8649zM20.5135 258.2432h0.8649v0.8649h-0.8649zM22.2432 258.2432h0.8649v0.8649h-0.8649zM24.8378 258.2432h0.8649v0.8649h-0.8649zM25.7027 258.2432h0.8649v0.8649h-0.8649zM26.5676 258.2432h0.8649v0.8649h-0.8649zM30.0270 258.2432h0.8649v0.8649h-0.8649zM30.8919 258.2432h0.8649v0.8649h-0.8649zM31.7568 258.2432h0.8649v0.8649h-0.8649zM32.6216 258.2432h0.8649v0.8649h-0.8649zM33.4865 258.2432h0.8649v0.8649h-0.8649zM35.2162 258.2432h0.8649v0.8649h-0.8649zM36.0811 258.2432h0.8649v0.8649h-0.8649zM36.9459 258.2432h0.8649v0.8649h-0.8649zM37.8108 258.2432h0.8649v0.8649h-0.8649zM38.6757 258.2432h0.8649v0.8649h-0.8649zM14.4595 259.1081h0.8649v0.8649h-0.8649zM15.3243 259.1081h0.8649v0.8649h-0.8649zM17.9189 259.1081h0.8649v0.8649h-0.8649zM18.7838 259.1081h0.8649v0.8649h-0.8649zM19.6486 259.1081h0.8649v0.8649h-0.8649zM21.3784 259.1081h0.8649v0.8649h-0.8649zM23.9730 259.1081h0.8649v0.8649h-0.8649zM27.4324 259.1081h0.8649v0.8649h-0.8649zM32.6216 259.1081h0.8649v0.8649h-0.8649zM33.4865 259.1081h0.8649v0.8649h-0.8649zM34.3514 259.1081h0.8649v0.8649h-0.8649zM36.0811 259.1081h0.8649v0.8649h-0.8649zM37.8108 259.1081h0.8649v0.8649h-0.8649zM38.6757 259.1081h0.8649v0.8649h-0.8649zM18.7838 259.9730h0.8649v0.8649h-0.8649zM21.3784 259.9730h0.8649v0.8649h-0.8649zM23.1081 259.9730h0.8649v0.8649h-0.8649zM24.8378 259.9730h0.8649v0.8649h-0.8649zM26.5676 259.9730h0.8649v0.8649h-0.8649zM28.2973 259.9730h0.8649v0.8649h-0.8649zM30.0270 259.9730h0.8649v0.8649h-0.8649zM33.4865 259.9730h0.8649v0.8649h-0.8649zM35.2162 259.9730h0.8649v0.8649h-0.8649zM36.0811 259.9730h0.8649v0.8649h-0.8649zM37.8108 259.9730h0.8649v0.8649h-0.8649zM38.6757 259.9730h0.8649v0.8649h-0.8649zM15.3243 260.8378h0.8649v0.8649h-0.8649zM16.1892 260.8378h0.8649v0.8649h-0.8649zM17.0541 260.8378h0.8649v0.8649h-0.8649zM18.7838 260.8378h0.8649v0.8649h-0.8649zM19.6486 260.8378h0.8649v0.8649h-0.8649zM21.3784 260.8378h0.8649v0.8649h-0.8649zM22.2432 260.8378h0.8649v0.8649h-0.8649zM23.1081 260.8378h0.8649v0.8649h-0.8649zM23.9730 260.8378h0.8649v0.8649h-0.8649zM25.7027 260.8378h0.8649v0.8649h-0.8649zM26.5676 260.8378h0.8649v0.8649h-0.8649zM28.2973 260.8378h0.8649v0.8649h-0.8649zM29.1622 260.8378h0.8649v0.8649h-0.8649zM30.8919 260.8378h0.8649v0.8649h-0.8649zM32.6216 260.8378h0.8649v0.8649h-0.8649zM34.3514 260.8378h0.8649v0.8649h-0.8649zM37.8108 260.8378h0.8649v0.8649h-0.8649zM14.4595 261.7027h0.8649v0.8649h-0.8649zM15.3243 261.7027h0.8649v0.8649h-0.8649zM17.9189 261.7027h0.8649v0.8649h-0.8649zM18.7838 261.7027h0.8649v0.8649h-0.8649zM20.5135 261.7027h0.8649v0.8649h-0.8649zM23.1081 261.7027h0.8649v0.8649h-0.8649zM23.9730 261.7027h0.8649v0.8649h-0.8649zM24.8378 261.7027h0.8649v0.8649h-0.8649zM30.0270 261.7027h0.8649v0.8649h-0.8649zM30.8919 261.7027h0.8649v0.8649h-0.8649zM31.7568 261.7027h0.8649v0.8649h-0.8649zM32.6216 261.7027h0.8649v0.8649h-0.8649zM33.4865 261.7027h0.8649v0.8649h-0.8649zM34.3514 261.7027h0.8649v0.8649h-0.8649zM35.2162 261.7027h0.8649v0.8649h-0.8649zM16.1892 262.5676h0.8649v0.8649h-0.8649zM17.0541 262.5676h0.8649v0.8649h-0.8649zM17.9189 262.5676h0.8649v0.8649h-0.8649zM19.6486 262.5676h0.8649v0.8649h-0.8649zM20.5135 262.5676h0.8649v0.8649h-0.8649zM22.2432 262.5676h0.8649v0.8649h-0.8649zM23.9730 262.5676h0.8649v0.8649h-0.8649zM24.8378 262.5676h0.8649v0.8649h-0.8649zM25.7027 262.5676h0.8649v0.8649h-0.8649zM26.5676 262.5676h0.8649v0.8649h-0.8649zM28.2973 262.5676h0.8649v0.8649h-0.8649zM30.0270 262.5676h0.8649v0.8649h-0.8649zM30.8919 262.5676h0.8649v0.8649h-0.8649zM38.6757 262.5676h0.8649v0.8649h-0.8649zM16.1892 263.4324h0.8649v0.8649h-0.8649zM17.0541 263.4324h0.8649v0.8649h-0.8649zM18.7838 263.4324h0.8649v0.8649h-0.8649zM21.3784 263.4324h0.8649v0.8649h-0.8649zM22.2432 263.4324h0.8649v0.8649h-0.8649zM23.9730 263.4324h0.8649v0.8649h-0.8649zM24.8378 263.4324h0.8649v0.8649h-0.8649zM25.7027 263.4324h0.8649v0.8649h-0.8649zM27.4324 263.4324h0.8649v0.8649h-0.8649zM28.2973 263.4324h0.8649v0.8649h-0.8649zM30.8919 263.4324h0.8649v0.8649h-0.8649zM32.6216 263.4324h0.8649v0.8649h-0.8649zM33.4865 263.4324h0.8649v0.8649h-0.8649zM35.2162 263.4324h0.8649v0.8649h-0.8649zM36.0811 263.4324h0.8649v0.8649h-0.8649zM37.8108 263.4324h0.8649v0.8649h-0.8649zM38.6757 263.4324h0.8649v0.8649h-0.8649zM15.3243 264.2973h0.8649v0.8649h-0.8649zM16.1892 264.2973h0.8649v0.8649h-0.8649zM18.7838 264.2973h0.8649v0.8649h-0.8649zM19.6486 264.2973h0.8649v0.8649h-0.8649zM20.5135 264.2973h0.8649v0.8649h-0.8649zM23.1081 264.2973h0.8649v0.8649h-0.8649zM23.9730 264.2973h0.8649v0.8649h-0.8649zM25.7027 264.2973h0.8649v0.8649h-0.8649zM28.2973 264.2973h0.8649v0.8649h-0.8649zM29.1622 264.2973h0.8649v0.8649h-0.8649zM30.0270 264.2973h0.8649v0.8649h-0.8649zM30.8919 264.2973h0.8649v0.8649h-0.8649zM32.6216 264.2973h0.8649v0.8649h-0.8649zM37.8108 264.2973h0.8649v0.8649h-0.8649zM38.6757 264.2973h0.8649v0.8649h-0.8649zM14.4595 265.1622h0.8649v0.8649h-0.8649zM15.3243 265.1622h0.8649v0.8649h-0.8649zM20.5135 265.1622h0.8649v0.8649h-0.8649zM24.8378 265.1622h0.8649v0.8649h-0.8649zM25.7027 265.1622h0.8649v0.8649h-0.8649zM26.5676 265.1622h0.8649v0.8649h-0.8649zM29.1622 265.1622h0.8649v0.8649h-0.8649zM30.8919 265.1622h0.8649v0.8649h-0.8649zM33.4865 265.1622h0.8649v0.8649h-0.8649zM34.3514 265.1622h0.8649v0.8649h-0.8649zM35.2162 265.1622h0.8649v0.8649h-0.8649zM36.0811 265.1622h0.8649v0.8649h-0.8649zM36.9459 265.1622h0.8649v0.8649h-0.8649zM16.1892 266.0270h0.8649v0.8649h-0.8649zM18.7838 266.0270h0.8649v0.8649h-0.8649zM19.6486 266.0270h0.8649v0.8649h-0.8649zM24.8378 266.0270h0.8649v0.8649h-0.8649zM27.4324 266.0270h0.8649v0.8649h-0.8649zM30.8919 266.0270h0.8649v0.8649h-0.8649zM31.7568 266.0270h0.8649v0.8649h-0.8649zM33.4865 266.0270h0.8649v0.8649h-0.8649zM36.0811 266.0270h0.8649v0.8649h-0.8649zM36.9459 266.0270h0.8649v0.8649h-0.8649zM38.6757 266.0270h0.8649v0.8649h-0.8649zM17.9189 266.8919h0.8649v0.8649h-0.8649zM21.3784 266.8919h0.8649v0.8649h-0.8649zM23.1081 266.8919h0.8649v0.8649h-0.8649zM23.9730 266.8919h0.8649v0.8649h-0.8649zM26.5676 266.8919h0.8649v0.8649h-0.8649zM30.0270 266.8919h0.8649v0.8649h-0.8649zM30.8919 266.8919h0.8649v0.8649h-0.8649zM31.7568 266.8919h0.8649v0.8649h-0.8649zM32.6216 266.8919h0.8649v0.8649h-0.8649zM33.4865 266.8919h0.8649v0.8649h-0.8649zM34.3514 266.8919h0.8649v0.8649h-0.8649zM36.0811 266.8919h0.8649v0.8649h-0.8649zM14.4595 267.7568h0.8649v0.8649h-0.8649zM15.3243 267.7568h0.8649v0.8649h-0.8649zM16.1892 267.7568h0.8649v0.8649h-0.8649zM17.0541 267.7568h0.8649v0.8649h-0.8649zM18.7838 267.7568h0.8649v0.8649h-0.8649zM19.6486 267.7568h0.8649v0.8649h-0.8649zM22.2432 267.7568h0.8649v0.8649h-0.8649zM24.8378 267.7568h0.8649v0.8649h-0.8649zM25.7027 267.7568h0.8649v0.8649h-0.8649zM26.5676 267.7568h0.8649v0.8649h-0.8649zM27.4324 267.7568h0.8649v0.8649h-0.8649zM28.2973 267.7568h0.8649v0.8649h-0.8649zM31.7568 267.7568h0.8649v0.8649h-0.8649zM32.6216 267.7568h0.8649v0.8649h-0.8649zM33.4865 267.7568h0.8649v0.8649h-0.8649zM34.3514 267.7568h0.8649v0.8649h-0.8649zM35.2162 267.7568h0.8649v0.8649h-0.8649zM37.8108 267.7568h0.8649v0.8649h-0.8649zM21.3784 268.6216h0.8649v0.8649h-0.8649zM22.2432 268.6216h0.8649v0.8649h-0.8649zM24.8378 268.6216h0.8649v0.8649h-0.8649zM29.1622 268.6216h0.8649v0.8649h-0.8649zM30.8919 268.6216h0.8649v0.8649h-0.8649zM31.7568 268.6216h0.8649v0.8649h-0.8649zM35.2162 268.6216h0.8649v0.8649h-0.8649zM36.9459 268.6216h0.8649v0.8649h-0.8649zM37.8108 268.6216h0.8649v0.8649h-0.8649zM14.4595 269.4865h0.8649v0.8649h-0.8649zM15.3243 269.4865h0.8649v0.8649h-0.8649zM16.1892 269.4865h0.8649v0.8649h-0.8649zM17.0541 269.4865h0.8649v0.8649h-0.8649zM17.9189 269.4865h0.8649v0.8649h-0.8649zM18.7838 269.4865h0.8649v0.8649h-0.8649zM19.6486 269.4865h0.8649v0.8649h-0.8649zM21.3784 269.4865h0.8649v0.8649h-0.8649zM22.2432 269.4865h0.8649v0.8649h-0.8649zM25.7027 269.4865h0.8649v0.8649h-0.8649zM26.5676 269.4865h0.8649v0.8649h-0.8649zM28.2973 269.4865h0.8649v0.8649h-0.8649zM29.1622 269.4865h0.8649v0.8649h-0.8649zM30.8919 269.4865h0.8649v0.8649h-0.8649zM31.7568 269.4865h0.8649v0.8649h-0.8649zM33.4865 269.4865h0.8649v0.8649h-0.8649zM35.2162 269.4865h0.8649v0.8649h-0.8649zM38.6757 269.4865h0.8649v0.8649h-0.8649zM14.4595 270.3514h0.8649v0.8649h-0.8649zM19.6486 270.3514h0.8649v0.8649h-0.8649zM23.1081 270.3514h0.8649v0.8649h-0.8649zM23.9730 270.3514h0.8649v0.8649h-0.8649zM25.7027 270.3514h0.8649v0.8649h-0.8649zM27.4324 270.3514h0.8649v0.8649h-0.8649zM29.1622 270.3514h0.8649v0.8649h-0.8649zM30.0270 270.3514h0.8649v0.8649h-0.8649zM30.8919 270.3514h0.8649v0.8649h-0.8649zM31.7568 270.3514h0.8649v0.8649h-0.8649zM35.2162 270.3514h0.8649v0.8649h-0.8649zM36.0811 270.3514h0.8649v0.8649h-0.8649zM14.4595 271.2162h0.8649v0.8649h-0.8649zM16.1892 271.2162h0.8649v0.8649h-0.8649zM17.0541 271.2162h0.8649v0.8649h-0.8649zM17.9189 271.2162h0.8649v0.8649h-0.8649zM19.6486 271.2162h0.8649v0.8649h-0.8649zM21.3784 271.2162h0.8649v0.8649h-0.8649zM22.2432 271.2162h0.8649v0.8649h-0.8649zM23.1081 271.2162h0.8649v0.8649h-0.8649zM23.9730 271.2162h0.8649v0.8649h-0.8649zM25.7027 271.2162h0.8649v0.8649h-0.8649zM27.4324 271.2162h0.8649v0.8649h-0.8649zM30.0270 271.2162h0.8649v0.8649h-0.8649zM31.7568 271.2162h0.8649v0.8649h-0.8649zM32.6216 271.2162h0.8649v0.8649h-0.8649zM33.4865 271.2162h0.8649v0.8649h-0.8649zM34.3514 271.2162h0.8649v0.8649h-0.8649zM35.2162 271.2162h0.8649v0.8649h-0.8649zM37.8108 271.2162h0.8649v0.8649h-0.8649zM38.6757 271.2162h0.8649v0.8649h-0.8649zM14.4595 272.0811h0.8649v0.8649h-0.8649zM16.1892 272.0811h0.8649v0.8649h-0.8649zM17.0541 272.0811h0.8649v0.8649h-0.8649zM17.9189 272.0811h0.8649v0.8649h-0.8649zM19.6486 272.0811h0.8649v0.8649h-0.8649zM22.2432 272.0811h0.8649v0.8649h-0.8649zM23.1081 272.0811h0.8649v0.8649h-0.8649zM23.9730 272.0811h0.8649v0.8649h-0.8649zM24.8378 272.0811h0.8649v0.8649h-0.8649zM25.7027 272.0811h0.8649v0.8649h-0.8649zM26.5676 272.0811h0.8649v0.8649h-0.8649zM30.0270 272.0811h0.8649v0.8649h-0.8649zM30.8919 272.0811h0.8649v0.8649h-0.8649zM31.7568 272.0811h0.8649v0.8649h-0.8649zM36.0811 272.0811h0.8649v0.8649h-0.8649zM36.9459 272.0811h0.8649v0.8649h-0.8649zM14.4595 272.9459h0.8649v0.8649h-0.8649zM16.1892 272.9459h0.8649v0.8649h-0.8649zM17.0541 272.9459h0.8649v0.8649h-0.8649zM17.9189 272.9459h0.8649v0.8649h-0.8649zM19.6486 272.9459h0.8649v0.8649h-0.8649zM24.8378 272.9459h0.8649v0.8649h-0.8649zM29.1622 272.9459h0.8649v0.8649h-0.8649zM31.7568 272.9459h0.8649v0.8649h-0.8649zM33.4865 272.9459h0.8649v0.8649h-0.8649zM36.9459 272.9459h0.8649v0.8649h-0.8649zM37.8108 272.9459h0.8649v0.8649h-0.8649zM38.6757 272.9459h0.8649v0.8649h-0.8649zM14.4595 273.8108h0.8649v0.8649h-0.8649zM19.6486 273.8108h0.8649v0.8649h-0.8649zM23.1081 273.8108h0.8649v0.8649h-0.8649zM23.9730 273.8108h0.8649v0.8649h-0.8649zM24.8378 273.8108h0.8649v0.8649h-0.8649zM27.4324 273.8108h0.8649v0.8649h-0.8649zM28.2973 273.8108h0.8649v0.8649h-0.8649zM29.1622 273.8108h0.8649v0.8649h-0.8649zM30.0270 273.8108h0.8649v0.8649h-0.8649zM30.8919 273.8108h0.8649v0.8649h-0.8649zM32.6216 273.8108h0.8649v0.8649h-0.8649zM33.4865 273.8108h0.8649v0.8649h-0.8649zM36.0811 273.8108h0.8649v0.8649h-0.8649zM37.8108 273.8108h0.8649v0.8649h-0.8649zM38.6757 273.8108h0.8649v0.8649h-0.8649zM14.4595 274.6757h0.8649v0.8649h-0.8649zM15.3243 274.6757h0.8649v0.8649h-0.8649zM16.1892 274.6757h0.8649v0.8649h-0.8649zM17.0541 274.6757h0.8649v0.8649h-0.8649zM17.9189 274.6757h0.8649v0.8649h-0.8649zM18.7838 274.6757h0.8649v0.8649h-0.8649zM19.6486 274.6757h0.8649v0.8649h-0.8649zM21.3784 274.6757h0.8649v0.8649h-0.8649zM22.2432 274.6757h0.8649v0.8649h-0.8649zM26.5676 274.6757h0.8649v0.8649h-0.8649zM27.4324 274.6757h0.8649v0.8649h-0.8649zM28.2973 274.6757h0.8649v0.8649h-0.8649zM30.8919 274.6757h0.8649v0.8649h-0.8649zM31.7568 274.6757h0.8649v0.8649h-0.8649zM34.3514 274.6757h0.8649v0.8649h-0.8649zM35.2162 274.6757h0.8649v0.8649h-0.8649zM36.0811 274.6757h0.8649v0.8649h-0.8649zM37.8108 274.6757h0.8649v0.8649h-0.8649z" fill="black"/>
  <rect x="167" y="247" width="32" height="32" fill="white"/><path d="M170.4595 250.4595h0.8649v0.8649h-0.8649zM171.3243 250.4595h0.8649v0.8649h-0.8649zM172.1892 250.4595h0.8649v0.8649h-0.8649zM173.0541 250.4595h0.8649v0.8649h-0.8649zM173.9189 250.4595h0.8649v0.8649h-0.8649zM174.7838 250.4595h0.8649v0.8649h-0.8649zM175.6486 250.4595h0.8649v0.8649h-0.8649zM177.3784 250.4595h0.8649v0.8649h-0.8649zM180.8378 250.4595h0.8649v0.8649h-0.8649zM181.7027 250.4595h0.8649v0.8649h-0.8649zM182.5676 250.4595h0.8649v0.8649h-0.8649zM184.2973 250.4595h0.8649v0.8649h-0.8649zM186.0270 250.4595h0.8649v0.8649h-0.8649zM186.8919 250.4595h0.8649v0.8649h-0.8649zM189.4865 250.4595h0.8649v0.8649h-0.8649zM190.3514 250.4595h0.8649v0.8649h-0.8649zM191.2162 250.4595h0.8649v0.8649h-0.8649zM192.0811 250.4595h0.8649v0.8649h-0.8649zM192.9459 250.4595h0.8649v0.8649h-0.8649zM193.8108 250.4595h0.8649v0.8649h-0.8649zM194.6757 250.4595h0.8649v0.8649h-0.8649zM170.4595 251.3243h0.8649v0.8649h-0.8649zM175.6486 251.3243h0.8649v0.8649h-0.8649zM178.2432 251.3243h0.8649v0.8649h-0.8649zM180.8378 251.3243h0.8649v0.8649h-0.8649zM181.7027 251.3243h0.8649v0.8649h-0.8649zM182.5676 251.3243h0.8649v0.8649h-0.8649zM183.4324 251.3243h0.8649v0.8649h-0.8649zM186.0270 251.3243h0.8649v0.8649h-0.8649zM186.8919 251.3243h0.8649v0.8649h-0.8649zM187.7568 251.3243h0.8649v0.8649h-0.8649zM189.4865 251.3243h0.8649v0.8649h-0.8649zM194.6757 251.3243h0.8649v0.8649h-0.8649zM170.4595 252.1892h0.8649v0.8649h-0.8649zM172.1892 252.1892h0.8649v0.8649h-0.8649zM173.0541 252.1892h0.8649v0.8649h-0.8649zM173.9189 252.1892h0.8649v0.8649h-0.8649zM175.6486 252.1892h0.8649v0.8649h-0.8649zM178.2432 252.1892h0.8649v0.8649h-0.8649zM179.1081 252.1892h0.8649v0.8649h-0.8649zM179.9730 252.1892h0.8649v0.8649h-0.8649zM180.8378 252.1892h0.8649v0.8649h-0.8649zM182.5676 252.1892h0.8649v0.8649h-0.8649zM187.7568 252.1892h0.8649v0.8649h-0.8649zM189.4865 252.1892h0.8649v0.8649h-0.8649zM191.2162 252.1892h0.8649v0.8649h-0.8649zM192.0811 252.1892h0.8649v0.8649h-0.8649zM192.9459 252.1892h0.8649v0.8649h-0.8649zM194.6757 252.1892h0.8649v0.8649h-0.8649zM170.4595 253.0541h0.8649v0.8649h-0.8649zM172.1892 253.0541h0.8649v0.8649h-0.8649zM173.0541 253.0541h0.8649v0.8649h-0.8649zM173.9189 253.0541h0.8649v0.8649h-0.8649zM175.6486 253.0541h0.8649v0.8649h-0.8649zM177.3784 253.0541h0.8649v0.8649h-0.8649zM179.1081 253.0541h0.8649v0.8649h-0.8649zM180.8378 253.0541h0.8649v0.8649h-0.8649zM184.2973 253.0541h0.8649v0.8649h-0.8649zM186.8919 253.0541h0.8649v0.8649h-0.8649zM189.4865 253.0541h0.8649v0.8649h-0.8649zM191.2162 253.0541h0.8649v0.8649h-0.8649zM192.0811 253.0541h0.8649v0.8649h-0.8649zM192.9459 253.0541h0.8649v0.8649h-0.8649zM194.6757 253.0541h0.8649v0.8649h-0.8649zM170.4595 253.9189h0.8649v0.8649h-0.8649zM172.1892 253.9189h0.8649v0.8649h-0.8649zM173.0541 253.9189h0.8649v0.8649h-0.8649zM173.9189 253.9189h0.8649v0.8649h-0.8649zM175.6486 253.9189h0.8649v0.8649h-0.8649zM177.3784 253.9189h0.8649v0.8649h-0.8649zM179.1081 253.9189h0.8649v0.8649h-0.8649zM180.8378 253.9189h0.8649v0.8649h-0.8649zM186.0270 253.9189h0.8649v0.8649h-0.8649zM186.8919 253.9189h0.8649v0.8649h-0.8649zM187.7568 253.9189h0.8649v0.8649h-0.8649zM189.4865 253.9189h0.8649v0.8649h-0.8649zM191.2162 253.9189h0.8649v0.8649h-0.8649zM192.0811 253.9189h0.8649v0.8649h-0.8649zM192.9459 253.9189h0.8649v0.8649h-0.8649zM194.6757 253.9189h0.8649v0.8649h-0.8649zM170.4595 254.7838h0.8649v0.8649h-0.8649zM175.6486 254.7838h0.8649v0.8649h-0.8649zM177.3784 254.7838h0.8649v0.8649h-0.8649zM178.2432 254.7838h0.8649v0.8649h-0.8649zM185.1622 254.7838h0.8649v0.8649h-0.8649zM189.4865 254.7838h0.8649v0.8649h-0.8649zM194.6757 254.7838h0.8649v0.8649h-0.8649zM170.4595 255.6486h0.8649v0.8649h-0.8649zM171.3243 255.6486h0.8649v0.8649h-0.8649zM172.1892 255.6486h0.8649v0.8649h-0.8649zM173.0541 255.6486h0.8649v0.8649h-0.8649zM173.9189 255.6486h0.8649v0.8649h-0.8649zM174.7838 255.6486h0.8649v0.8649h-0.8649zM175.6486 255.6486h0.8649v0.8649h-0.8649zM177.3784 255.6486h0.8649v0.8649h-0.8649zM179.1081 255.6486h0.8649v0.8649h-0.8649zM180.8378 255.6486h0.8649v0.8649h-0.8649zM182.5676 255.6486h0.8649v0.8649h-0.8649zM184.2973 255.6486h0.8649v0.8649h-0.8649zM186.0270 255.6486h0.8649v0.8649h-0.8649zM187.7568 255.6486h0.8649v0.8649h-0.8649zM189.4865 255.6486h0.8649v0.8649h-0.8649zM190.3514 255.6486h0.8649v0.8649h-0.8649zM191.2162 255.6486h0.8649v0.8649h-0.8649zM192.0811 255.6486h0.8649v0.8649h-0.8649zM192.9459 255.6486h0.8649v0.8649h-0.8649zM193.8108 255.6486h0.8649v0.8649h-0.8649zM194.6757 255.6486h0.8649v0.8649h-0.8649zM177.3784 256.5135h0.8649v0.8649h-0.8649zM178.2432 256.5135h0.8649v0.8649h-0.8649zM179.1081 256.5135h0.8649v0.8649h-0.8649zM180.8378 256.5135h0.8649v0.8649h-0.8649zM181.7027 256.5135h0.8649v0.8649h-0.8649zM183.4324 256.5135h0.8649v0.8649h-0.8649zM184.2973 256.5135h0.8649v0.8649h-0.8649zM185.1622 256.5135h0.8649v0.8649h-0.8649zM187.7568 256.5135h0.8649v0.8649h-0.8649zM170.4595 257.3784h0.8649v0.8649h-0.8649zM173.9189 257.3784h0.8649v0.8649h-0.8649zM175.6486 257.3784h0.8649v0.8649h-0.8649zM176.5135 257.3784h0.8649v0.8649h-0.8649zM177.3784 257.3784h0.8649v0.8649h-0.8649zM179.9730 257.3784h0.8649v0.8649h-0.8649zM180.8378 257.3784h0.8649v0.8649h-0.8649zM181.7027 257.3784h0.8649v0.8649h-0.8649zM185.1622 257.3784h0.8649v0.8649h-0.8649zM186.0270 257.3784h0.8649v0.8649h-0.8649zM186.8919 257.3784h0.8649v0.8649h-0.8649zM187.7568 257.3784h0.8649v0.8649h-0.8649zM188.6216 257.3784h0.8649v0.8649h-0.8649zM189.4865 257.3784h0.8649v0.8649h-0.8649zM190.3514 257.3784h0.8649v0.8649h-0.8649zM191.2162 257.3784h0.8649v0.8649h-0.8649zM192.0811 257.3784h0.8649v0.8649h-0.8649zM194.6757 257.3784h0.8649v0.8649h-0.8649zM173.0541 258.2432h0.8649v0.8649h-0.8649zM177.3784 258.2432h0.8649v0.8649h-0.8649zM178.2432 258.2432h0.8649v0.8649h-0.8649zM179.9730 258.2432h0.8649v0.8649h-0.8649zM180.8378 258.2432h0.8649v0.8649h-0.8649zM181.7027 258.2432h0.8649v0.8649h-0.8649zM182.5676 258.2432h0.8649v0.8649h-0.8649zM186.0270 258.2432h0.8649v0.8649h-0.8649zM186.8919 258.2432h0.8649v0.8649h-0.8649zM187.7568 258.2432h0.8649v0.8649h-0.8649zM188.6216 258.2432h0.8649v0.8649h-0.8649zM189.4865 258.2432h0.8649v0.8649h-0.8649zM191.2162 258.2432h0.8649v0.8649h-0.8649zM192.0811 258.2432h0.8649v0.8649h-0.8649zM192.9459 258.2432h0.8649v0.8649h-0.8649zM193.8108 258.2432h0.8649v0.8649h-0.8649zM194.6757 258.2432h0.8649v0.8649h-0.8649zM171.3243 259.1081h0.8649v0.8649h-0.8649zM172.1892 259.1081h0.8649v0.8649h-0.8649zM173.9189 259.1081h0.8649v0.8649h-0.8649zM175.6486 259.1081h0.8649v0.8649h-0.8649zM177.3784 259.1081h0.8649v0.8649h-0.8649zM178.2432 259.1081h0.8649v0.8649h-0.8649zM179.1081 259.1081h0.8649v0.8649h-0.8649zM184.2973 259.1081h0.8649v0.8649h-0.8649zM188.6216 259.1081h0.8649v0.8649h-0.8649zM189.4865 259.1081h0.8649v0.8649h-0.8649zM190.3514 259.1081h0.8649v0.8649h-0.8649zM192.0811 259.1081h0.8649v0.8649h-0.8649zM193.8108 259.1081h0.8649v0.8649h-0.8649zM194.6757 259.1081h0.8649v0.8649h-0.8649zM170.4595 259.9730h0.8649v0.8649h-0.8649zM172.1892 259.9730h0.8649v0.8649h-0.8649zM173.9189 259.9730h0.8649v0.8649h-0.8649zM178.2432 259.9730h0.8649v0.8649h-0.8649zM179.9730 259.9730h0.8649v0.8649h-0.8649zM180.8378 259.9730h0.8649v0.8649h-0.8649zM182.5676 259.9730h0.8649v0.8649h-0.8649zM183.4324 259.9730h0.8649v0.8649h-0.8649zM186.0270 259.9730h0.8649v0.8649h-0.8649zM189.4865 259.9730h0.8649v0.8649h-0.8649zM191.2162 259.9730h0.8649v0.8649h-0.8649zM192.0811 259.9730h0.8649v0.8649h-0.8649zM193.8108 259.9730h0.8649v0.8649h-0.8649zM194.6757 259.9730h0.8649v0.8649h-0.8649zM173.9189 260.8378h0.8649v0.8649h-0.8649zM175.6486 260.8378h0.8649v0.8649h-0.8649zM177.3784 260.8378h0.8649v0.8649h-0.8649zM178.2432 260.8378h0.8649v0.8649h-0.8649zM179.1081 260.8378h0.8649v0.8649h-0.8649zM179.9730 260.8378h0.8649v0.8649h-0.8649zM181.7027 260.8378h0.8649v0.8649h-0.8649zM182.5676 260.8378h0.8649v0.8649h-0.8649zM184.2973 260.8378h0.8649v0.8649h-0.8649zM185.1622 260.8378h0.8649v0.8649h-0.8649zM186.8919 260.8378h0.8649v0.8649h-0.8649zM188.6216 260.8378h0.8649v0.8649h-0.8649zM190.3514 260.8378h0.8649v0.8649h-0.8649zM193.8108 260.8378h0.8649v0.8649h-0.8649zM170.4595 261.7027h0.8649v0.8649h-0.8649zM172.1892 261.7027h0.8649v0.8649h-0.8649zM173.0541 261.7027h0.8649v0.8649h-0.8649zM174.7838 261.7027h0.8649v0.8649h-0.8649zM177.3784 261.7027h0.8649v0.8649h-0.8649zM179.1081 261.7027h0.8649v0.8649h-0.8649zM180.8378 261.7027h0.8649v0.8649h-0.8649zM186.0270 261.7027h0.8649v0.8649h-0.8649zM186.8919 261.7027h0.8649v0.8649h-0.8649zM187.7568 261.7027h0.8649v0.8649h-0.8649zM188.6216 261.7027h0.8649v0.8649h-0.8649zM189.4865 261.7027h0.8649v0.8649h-0.8649zM190.3514 261.7027h0.8649v0.8649h-0.8649zM191.2162 261.7027h0.8649v0.8649h-0.8649zM170.4595 262.5676h0.8649v0.8649h-0.8649zM172.1892 262.5676h0.8649v0.8649h-0.8649zM173.0541 262.5676h0.8649v0.8649h-0.8649zM175.6486 262.5676h0.8649v0.8649h-0.8649zM176.5135 262.5676h0.8649v0.8649h-0.8649zM179.1081 262.5676h0.8649v0.8649h-0.8649zM179.9730 262.5676h0.8649v0.8649h-0.8649zM181.7027 262.5676h0.8649v0.8649h-0.8649zM182.5676 262.5676h0.8649v0.8649h-0.8649zM184.2973 262.5676h0.8649v0.8649h-0.8649zM186.0270 262.5676h0.8649v0.8649h-0.8649zM186.8919 262.5676h0.8649v0.8649h-0.8649zM194.6757 262.5676h0.8649v0.8649h-0.8649zM170.4595 263.4324h0.8649v0.8649h-0.8649zM171.3243 263.4324h0.8649v0.8649h-0.8649zM172.1892 263.4324h0.8649v0.8649h-0.8649zM176.5135 263.4324h0.8649v0.8649h-0.8649zM178.2432 263.4324h0.8649v0.8649h-0.8649zM180.8378 263.4324h0.8649v0.8649h-0.8649zM181.7027 263.4324h0.8649v0.8649h-0.8649zM183.4324 263.4324h0.8649v0.8649h-0.8649zM184.2973 263.4324h0.8649v0.8649h-0.8649zM186.8919 263.4324h0.8649v0.8649h-0.8649zM188.6216 263.4324h0.8649v0.8649h-0.8649zM189.4865 263.4324h0.8649v0.8649h-0.8649zM191.2162 263.4324h0.8649v0.8649h-0.8649zM192.0811 263.4324h0.8649v0.8649h-0.8649zM193.8108 263.4324h0.8649v0.8649h-0.8649zM194.6757 263.4324h0.8649v0.8649h-0.8649zM171.3243 264.2973h0.8649v0.8649h-0.8649zM173.0541 264.2973h0.8649v0.8649h-0.8649zM175.6486 264.2973h0.8649v0.8649h-0.8649zM176.5135 264.2973h0.8649v0.8649h-0.8649zM177.3784 264.2973h0.8649v0.8649h-0.8649zM178.2432 264.2973h0.8649v0.8649h-0.8649zM179.1081 264.2973h0.8649v0.8649h-0.8649zM181.7027 264.2973h0.8649v0.8649h-0.8649zM184.2973 264.2973h0.8649v0.8649h-0.8649zM185.1622 264.2973h0.8649v0.8649h-0.8649zM186.0270 264.2973h0.8649v0.8649h-0.8649zM186.8919 264.2973h0.8649v0.8649h-0.8649zM188.6216 264.2973h0.8649v0.8649h-0.8649zM193.8108 264.2973h0.8649v0.8649h-0.8649zM194.6757 264.2973h0.8649v0.8649h-0.8649zM170.4595 265.1622h0.8649v0.8649h-0.8649zM171.3243 265.1622h0.8649v0.8649h-0.8649zM178.2432 265.1622h0.8649v0.8649h-0.8649zM179.9730 265.1622h0.8649v0.8649h-0.8649zM181.7027 265.1622h0.8649v0.8649h-0.8649zM182.5676 265.1622h0.8649v0.8649h-0.8649zM185.1622 265.1622h0.8649v0.8649h-0.8649zM186.8919 265.1622h0.8649v0.8649h-0.8649zM189.4865 265.1622h0.8649v0.8649h-0.8649zM190.3514 265.1622h0.8649v0.8649h-0.8649zM191.2162 265.1622h0.8649v0.8649h-0.8649zM192.0811 265.1622h0.8649v0.8649h-0.8649zM192.9459 265.1622h0.8649v0.8649h-0.8649zM173.0541 266.0270h0.8649v0.8649h-0.8649zM173.9189 266.0270h0.8649v0.8649h-0.8649zM174.7838 266.0270h0.8649v0.8649h-0.8649zM175.6486 266.0270h0.8649v0.8649h-0.8649zM176.5135 266.0270h0.8649v0.8649h-0.8649zM179.9730 266.0270h0.8649v0.8649h-0.8649zM180.8378 266.0270h0.8649v0.8649h-0.8649zM183.4324 266.0270h0.8649v0.8649h-0.8649zM186.8919 266.0270h0.8649v0.8649h-0.8649zM187.7568 266.0270h0.8649v0.8649h-0.8649zM189.4865 266.0270h0.8649v0.8649h-0.8649zM192.0811 266.0270h0.8649v0.8649h-0.8649zM192.9459 266.0270h0.8649v0.8649h-0.8649zM194.6757 266.0270h0.8649v0.8649h-0.8649zM173.0541 266.8919h0.8649v0.8649h-0.8649zM174.7838 266.8919h0.8649v0.8649h-0.8649zM178.2432 266.8919h0.8649v0.8649h-0.8649zM180.8378 266.8919h0.8649v0.8649h-0.8649zM182.5676 266.8919h0.8649v0.8649h-0.8649zM186.0270 266.8919h0.8649v0.8649h-0.8649zM186.8919 266.8919h0.8649v0.8649h-0.8649zM187.7568 266.8919h0.8649v0.8649h-0.8649zM188.6216 266.8919h0.8649v0.8649h-0.8649zM189.4865 266.8919h0.8649v0.8649h-0.8649zM190.3514 266.8919h0.8649v0.8649h-0.8649zM192.0811 266.8919h0.8649v0.8649h-0.8649zM170.4595 267.7568h0.8649v0.8649h-0.8649zM171.3243 267.7568h0.8649v0.8649h-0.8649zM172.1892 267.7568h0.8649v0.8649h-0.8649zM173.0541 267.7568h0.8649v0.8649h-0.8649zM174.7838 267.7568h0.8649v0.8649h-0.8649zM175.6486 267.7568h0.8649v0.8649h-0.8649zM176.5135 267.7568h0.8649v0.8649h-0.8649zM178.2432 267.7568h0.8649v0.8649h-0.8649zM179.9730 267.7568h0.8649v0.8649h-0.8649zM181.7027 267.7568h0.8649v0.8649h-0.8649zM182.5676 267.7568h0.8649v0.8649h-0.8649zM183.4324 267.7568h0.8649v0.8649h-0.8649zM184.2973 267.7568h0.8649v0.8649h-0.8649zM187.7568 267.7568h0.8649v0.8649h-0.8649zM188.6216 267.7568h0.8649v0.8649h-0.8649zM189.4865 267.7568h0.8649v0.8649h-0.8649zM190.3514 267.7568h0.8649v0.8649h-0.8649zM191.2162 267.7568h0.8649v0.8649h-0.8649zM193.8108 267.7568h0.8649v0.8649h-0.8649zM177.3784 268.6216h0.8649v0.8649h-0.8649zM179.1081 268.6216h0.8649v0.8649h-0.8649zM179.9730 268.6216h0.8649v0.8649h-0.8649zM185.1622 268.6216h0.8649v0.8649h-0.8649zM186.8919 268.6216h0.8649v0.8649h-0.8649zM187.7568 268.6216h0.8649v0.8649h-0.8649zM191.2162 268.6216h0.8649v0.8649h-0.8649zM192.9459 268.6216h0.8649v0.8649h-0.8649zM193.8108 268.6216h0.8649v0.8649h-0.8649zM170.4595 269.4865h0.8649v0.8649h-0.8649zM171.3243 269.4865h0.8649v0.8649h-0.8649zM172.1892 269.4865h0.8649v0.8649h-0.8649zM173.0541 269.4865h0.8649v0.8649h-0.8649zM173.9189 269.4865h0.8649v0.8649h-0.8649zM174.7838 269.4865h0.8649v0.8649h-0.8649zM175.6486 269.4865h0.8649v0.8649h-0.8649zM177.3784 269.4865h0.8649v0.8649h-0.8649zM178.2432 269.4865h0.8649v0.8649h-0.8649zM179.1081 269.4865h0.8649v0.8649h-0.8649zM181.7027 269.4865h0.8649v0.8649h-0.8649zM182.5676 269.4865h0.8649v0.8649h-0.8649zM184.2973 269.4865h0.8649v0.8649h-0.8649zM185.1622 269.4865h0.8649v0.8649h-0.8649zM186.8919 269.4865h0.8649v0.8649h-0.8649zM187.7568 269.4865h0.8649v0.8649h-0.8649zM189.4865 269.4865h0.8649v0.8649h-0.8649zM191.2162 269.4865h0.8649v0.8649h-0.8649zM194.6757 269.4865h0.8649v0.8649h-0.8649zM170.4595 270.3514h0.8649v0.8649h-0.8649zM175.6486 270.3514h0.8649v0.8649h-0.8649zM178.2432 270.3514h0.8649v0.8649h-0.8649zM179.1081 270.3514h0.8649v0.8649h-0.8649zM181.7027 270.3514h0.8649v0.8649h-0.8649zM183.4324 270.3514h0.8649v0.8649h-0.8649zM185.1622 270.3514h0.8649v0.8649h-0.8649zM186.0270 270.3514h0.8649v0.8649h-0.8649zM186.8919 270.3514h0.8649v0.8649h-0.8649zM187.7568 270.3514h0.8649v0.8649h-0.8649zM191.2162 270.3514h0.8649v0.8649h-0.8649zM192.0811 270.3514h0.8649v0.8649h-0.8649zM170.4595 271.2162h0.8649v0.8649h-0.8649zM172.1892 271.2162h0.8649v0.8649h-0.8649zM173.0541 271.2162h0.8649v0.8649h-0.8649zM173.9189 271.2162h0.8649v0.8649h-0.8649zM175.6486 271.2162h0.8649v0.8649h-0.8649zM177.3784 271.2162h0.8649v0.8649h-0.8649zM180.8378 271.2162h0.8649v0.8649h-0.8649zM181.7027 271.2162h0.8649v0.8649h-0.8649zM183.4324 271.2162h0.8649v0.8649h-0.8649zM186.0270 271.2162h0.8649v0.8649h-0.8649zM187.7568 271.2162h0.8649v0.8649h-0.8649zM188.6216 271.2162h0.8649v0.8649h-0.8649zM189.4865 271.2162h0.8649v0.8649h-0.8649zM190.3514 271.2162h0.8649v0.8649h-0.8649zM191.2162 271.2162h0.8649v0.8649h-0.8649zM193.8108 271.2162h0.8649v0.8649h-0.8649zM194.6757 271.2162h0.8649v0.8649h-0.8649zM170.4595 272.0811h0.8649v0.8649h-0.8649zM172.1892 272.0811h0.8649v0.8649h-0.8649zM173.0541 272.0811h0.8649v0.8649h-0.8649zM173.9189 272.0811h0.8649v0.8649h-0.8649zM175.6486 272.0811h0.8649v0.8649h-0.8649zM179.1081 272.0811h0.8649v0.8649h-0.8649zM179.9730 272.0811h0.8649v0.8649h-0.8649zM180.8378 272.0811h0.8649v0.8649h-0.8649zM181.7027 272.0811h0.8649v0.8649h-0.8649zM182.5676 272.0811h0.8649v0.8649h-0.8649zM186.0270 272.0811h0.8649v0.8649h-0.8649zM186.8919 272.0811h0.8649v0.8649h-0.8649zM187.7568 272.0811h0.8649v0.8649h-0.8649zM192.0811 272.0811h0.8649v0.8649h-0.8649zM192.9459 272.0811h0.8649v0.8649h-0.8649zM170.4595 272.9459h0.8649v0.8649h-0.8649zM172.1892 272.9459h0.8649v0.8649h-0.8649zM173.0541 272.9459h0.8649v0.8649h-0.8649zM173.9189 272.9459h0.8649v0.8649h-0.8649zM175.6486 272.9459h0.8649v0.8649h-0.8649zM179.1081 272.9459h0.8649v0.8649h-0.8649zM179.9730 272.9459h0.8649v0.8649h-0.8649zM180.8378 272.9459h0.8649v0.8649h-0.8649zM181.7027 272.9459h0.8649v0.8649h-0.8649zM185.1622 272.9459h0.8649v0.8649h-0.8649zM187.7568 272.9459h0.8649v0.8649h-0.8649zM189.4865 272.9459h0.8649v0.8649h-0.8649zM192.9459 272.9459h0.8649v0.8649h-0.8649zM193.8108 272.9459h0.8649v0.8649h-0.8649zM194.6757 272.9459h0.8649v0.8649h-0.8649zM170.4595 273.8108h0.8649v0.8649h-0.8649zM175.6486 273.8108h0.8649v0.8649h-0.8649zM179.1081 273.8108h0.8649v0.8649h-0.8649zM179.9730 273.8108h0.8649v0.8649h-0.8649zM180.8378 273.8108h0.8649v0.8649h-0.8649zM181.7027 273.8108h0.8649v0.8649h-0.8649zM183.4324 273.8108h0.8649v0.8649h-0.8649zM184.2973 273.8108h0.8649v0.8649h-0.8649zM185.1622 273.8108h0.8649v0.8649h-0.8649zM186.0270 273.8108h0.8649v0.8649h-0.8649zM186.8919 273.8108h0.8649v0.8649h-0.8649zM188.6216 273.8108h0.8649v0.8649h-0.8649zM189.4865 273.8108h0.8649v0.8649h-0.8649zM192.0811 273.8108h0.8649v0.8649h-0.8649zM193.8108 273.8108h0.8649v0.8649h-0.8649zM194.6757 273.8108h0.8649v0.8649h-0.8649zM170.4595 274.6757h0.8649v0.8649h-0.8649zM171.3243 274.6757h0.8649v0.8649h-0.8649zM172.1892 274.6757h0.8649v0.8649h-0.8649zM173.0541 274.6757h0.8649v0.8649h-0.8649zM173.9189 274.6757h0.8649v0.8649h-0.8649zM174.7838 274.6757h0.8649v0.8649h-0.8649zM175.6486 274.6757h0.8649v0.8649h-0.8649zM177.3784 274.6757h0.8649v0.8649h-0.8649zM180.8378 274.6757h0.8649v0.8649h-0.8649zM182.5676 274.6757h0.8649v0.8649h-0.8649zM183.4324 274.6757h0.8649v0.8649h-0.8649zM184.2973 274.6757h0.8649v0.8649h-0.8649zM186.8919 274.6757h0.8649v0.8649h-0.8649zM187.7568 274.6757h0.8649v0.8649h-0.8649zM190.3514 274.6757h0.8649v0.8649h-0.8649zM191.2162 274.6757h0.8649v0.8649h-0.8649zM192.0811 274.6757h0.8649v0.8649h-0.8649zM193.8108 274.6757h0.8649v0.8649h-0.8649z" fill="black"/>
<g transform="translate(20 64) scale(0.33203125 0.33203125)">
  <title>Быстрая рыбка — боковая раскраска</title>
  <desc>Шаблон stream v1, SHA-256 раскладки d239842c3929987516f2c7b5a4f33e6fdc5aad29025c9156bfdf796f161d71a4. Только одна сторона для раскрашивания.</desc>
  <rect width="512" height="512" fill="white"/>
  <g fill="white" stroke="#172a33" stroke-width="2.5" stroke-linejoin="round">
    <path d="M62.439024,243.2 L91.160976,214.109091 L132.370732,188.509091 L189.814634,172.218182 L253.502439,172.218182 L313.443902,186.181818 L363.395122,209.454545 L403.356098,235.054545 L403.356098,276.945455 L363.395122,302.545455 L313.443902,325.818182 L253.502439,339.781818 L189.814634,339.781818 L132.370732,323.490909 L91.160976,297.890909 L62.439024,268.8 Z"/>
      <polygon points="395.863415,239.709091 484.526829,130.327273 445.814634,253.672727"/>
      <polygon points="395.863415,272.290909 445.814634,258.327273 484.526829,381.672727"/>
      <polygon points="171.082927,176.872727 217.287805,95.418182 267.239024,174.545455"/>
      <polygon points="253.502439,337.454545 293.463415,395.636364 322.185366,323.490909"/>
  </g>
  <ellipse cx="101.15122" cy="238.545455" rx="9.365854" ry="17.454545" fill="white" stroke="#172a33" stroke-width="2"/>
  <ellipse cx="101.15122" cy="238.545455" rx="4.49561" ry="8.378182" fill="#172a33"/>
  <text x="256" y="490" text-anchor="middle" fill="#172a33" font-family="sans-serif" font-size="12">Быстрая рыбка · stream v1</text>
</g>
<text x="105" y="55" font-family="sans-serif" font-size="4" text-anchor="middle">Раскрась рыбку внутри контура. Не закрашивай четыре QR-маркера.</text>
<text x="105" y="286" font-family="sans-serif" font-size="3" text-anchor="middle">stream · шаблон 1 · лист WLD1 · d239842c3929987516f2</text>
</svg>
